<svg width="250" height="387" viewBox="0 0 250 387" fill="none"
    xmlns="http://www.w3.org/2000/svg">
    <path d="M-9.41753e-06 382.334L68.8503 342.32V262.275L-9.41753e-06 222.261V72.6505L125 8.23103e-06L250 72.6505V222.282L181.15 262.275V342.32L250 382.334V387L177.139 344.634V259.961L247.995 218.781V76.1301L125 4.64526L2.00534 76.1301V218.781L72.861 259.961V344.634L-9.41753e-06 387V382.334ZM122.995 387V231.139L52.139 189.959V105.287L125 62.9411L197.861 105.287V189.959L127.005 231.139V387H122.995ZM193.85 187.646V107.601L125 67.5864L56.1497 107.601V187.646L125 227.66L193.85 187.646Z" fill="#EA580C"/>
</svg>
