<svg width="250" height="248" viewBox="0 0 250 248" fill="none" xmlns="http://www.w3.org/2000/svg">
<g opacity="0.2" filter="url(#filter0_f_77_4)">
<path d="M85.9214 69.4875C85.9214 70.5921 85.0259 71.4875 83.9214 71.4875H77.2651C76.1605 71.4875 75.2651 70.5921 75.2651 69.4875V32.1C75.2651 30.9954 74.3697 30.1 73.2651 30.1H63.6182C62.5137 30.1 61.6182 29.2046 61.6182 28.1V23.2313C61.6182 22.1267 62.5137 21.2313 63.6182 21.2313H97.5682C98.6728 21.2313 99.5682 22.1267 99.5682 23.2312V28.1C99.5682 29.2046 98.6728 30.1 97.5682 30.1H87.9214C86.8168 30.1 85.9214 30.9954 85.9214 32.1V69.4875Z" fill="white"/>
<path d="M114.962 18C116.067 18 116.962 18.8954 116.962 20V28.8969C116.962 30.799 116.893 32.6094 116.756 34.3281C116.659 35.7824 116.578 36.8757 116.514 37.6081C116.497 37.8032 116.65 37.9719 116.846 37.9719C116.961 37.9719 117.067 37.9123 117.129 37.8156C117.933 36.5581 118.874 35.5331 119.953 34.7406C121.098 33.9156 122.359 33.3083 123.734 32.9188C125.109 32.5292 126.587 32.3344 128.168 32.3344C130.941 32.3344 133.359 32.8271 135.421 33.8125C137.484 34.775 139.088 36.299 140.234 38.3844C141.38 40.4469 141.953 43.1281 141.953 46.4281V69.4875C141.953 70.5921 141.057 71.4875 139.953 71.4875H133.468C132.364 71.4875 131.468 70.5921 131.468 69.4875V49.0406C131.468 46.2906 130.964 44.2167 129.956 42.8188C128.947 41.4208 127.389 40.7219 125.281 40.7219C123.172 40.7219 121.511 41.2146 120.296 42.2C119.082 43.1625 118.222 44.5948 117.718 46.4969C117.214 48.376 116.962 50.6792 116.962 53.4062V69.4875C116.962 70.5921 116.067 71.4875 114.962 71.4875H108.478C107.373 71.4875 106.478 70.5921 106.478 69.4875V20C106.478 18.8954 107.373 18 108.478 18H114.962Z" fill="white"/>
<path d="M168.593 32.3344C172.145 32.3344 175.205 33.0219 177.771 34.3969C180.338 35.749 182.32 37.7198 183.718 40.3094C185.116 42.899 185.815 46.0615 185.815 49.7969V52.8844C185.815 53.9889 184.92 54.8844 183.815 54.8844H163.11C161.975 54.8844 161.047 55.8339 161.254 56.9497C161.625 58.9458 162.433 60.5834 163.678 61.8625C165.351 63.5354 167.665 64.3719 170.621 64.3719C173.073 64.3719 175.319 64.1198 177.359 63.6156C178.473 63.3403 179.603 62.9899 180.751 62.5643C182.124 62.0552 183.649 63.0271 183.649 64.4913V68.2166C183.649 68.9776 183.22 69.6792 182.522 69.9821C180.963 70.6584 179.345 71.1717 177.668 71.5219C175.606 71.9573 173.096 72.175 170.14 72.175C166.29 72.175 162.876 71.4646 159.896 70.0438C156.94 68.6229 154.614 66.4573 152.918 63.5469C151.245 60.6365 150.409 56.9698 150.409 52.5469C150.409 48.0552 151.165 44.3198 152.678 41.3406C154.213 38.3385 156.344 36.0927 159.071 34.6031C161.798 33.0906 164.972 32.3344 168.593 32.3344ZM168.662 39.7938C166.622 39.7938 164.927 40.4469 163.574 41.7531C162.61 42.7013 161.941 44.042 161.568 45.7751C161.323 46.9116 162.262 47.9062 163.424 47.9062H173.954C175.07 47.9062 175.995 46.9854 175.789 45.8883C175.646 45.1234 175.425 44.4095 175.124 43.7469C174.597 42.5323 173.795 41.5698 172.718 40.8594C171.664 40.149 170.312 39.7938 168.662 39.7938Z" fill="white"/>
<path d="M3.00075 141.888C1.72975 141.888 0.78115 140.717 1.04397 139.474L10.8204 93.2177C11.0159 92.2929 11.832 91.6312 12.7772 91.6312H23.4964C28.538 91.6312 32.5141 92.7198 35.4245 94.8969C38.3578 97.051 39.8245 100.557 39.8245 105.416C39.8245 108.074 39.3432 110.4 38.3807 112.394C37.4182 114.388 36.1005 116.06 34.4276 117.412C33.3078 118.33 32.0772 119.105 30.7358 119.738C29.6894 120.231 29.1357 121.445 29.584 122.511L36.5613 139.113C37.1153 140.431 36.1474 141.888 34.7176 141.888H27.7089C26.8714 141.888 26.1225 141.366 25.8326 140.58L19.682 123.911C19.392 123.125 18.6432 122.603 17.8056 122.603H16.7291C15.7845 122.603 14.9687 123.264 14.7726 124.188L11.3544 140.303C11.1584 141.227 10.3426 141.888 9.39797 141.888H3.00075ZM17.4445 111.525C17.1799 112.769 18.1288 113.941 19.4008 113.941H19.612C21.1016 113.941 22.4307 113.78 23.5995 113.459C24.7911 113.116 25.7995 112.623 26.6245 111.981C27.4495 111.317 28.0682 110.492 28.4807 109.506C28.9161 108.498 29.1339 107.329 29.1339 106C29.1339 104.121 28.5839 102.711 27.4839 101.772C26.3839 100.832 24.6766 100.363 22.362 100.363H21.4376C20.4934 100.363 19.6778 101.023 19.4814 101.946L17.4445 111.525Z" fill="white"/>
<path d="M59.8995 142.575C56.8974 142.575 54.2505 142.036 51.9589 140.959C49.6901 139.859 47.9141 138.209 46.6307 136.009C45.3474 133.809 44.7057 131.048 44.7057 127.725C44.7057 124.517 45.1641 121.423 46.0807 118.444C46.9974 115.442 48.3609 112.76 50.1714 110.4C52.0047 108.04 54.2505 106.172 56.9089 104.797C59.5901 103.422 62.6839 102.734 66.1901 102.734C70.4984 102.734 73.7182 103.72 75.8495 105.691C78.0036 107.639 79.0807 110.148 79.0807 113.219C79.0807 115.235 78.6224 117.069 77.7057 118.719C76.812 120.369 75.4484 121.79 73.6151 122.981C71.7818 124.15 69.4787 125.055 66.7057 125.697C63.9328 126.316 60.6786 126.625 56.9432 126.625H55.9153C55.5054 126.625 55.1666 126.939 55.1214 127.347C55.1214 127.553 55.1214 127.782 55.1214 128.034C55.1214 130.097 55.7172 131.735 56.9089 132.95C58.1005 134.165 59.7849 134.772 61.962 134.772C63.9786 134.772 65.812 134.543 67.462 134.084C68.3596 133.835 69.3454 133.498 70.4193 133.072C71.7814 132.532 73.3057 133.499 73.3057 134.964V138.37C73.3057 139.134 72.8725 139.837 72.1735 140.145C70.5226 140.874 68.849 141.443 67.1526 141.853C65.0672 142.334 62.6495 142.575 59.8995 142.575ZM56.7305 118.155C56.4848 118.91 57.0775 119.647 57.8714 119.647C60.5297 119.647 62.6839 119.36 64.3339 118.787C66.0068 118.215 67.2214 117.458 67.9776 116.519C68.7568 115.579 69.1464 114.559 69.1464 113.459C69.1464 112.359 68.8255 111.546 68.1839 111.019C67.5651 110.469 66.6828 110.194 65.537 110.194C64.2536 110.194 62.9818 110.595 61.7214 111.397C60.4609 112.199 59.3495 113.31 58.387 114.731C57.691 115.759 57.1389 116.9 56.7305 118.155Z" fill="white"/>
<path d="M98.262 142.575C95.6037 142.575 93.1859 142.105 91.0089 141.166C88.8547 140.203 87.1359 138.691 85.8526 136.628C84.5922 134.543 83.962 131.816 83.962 128.447C83.962 125.674 84.2484 123.016 84.8214 120.472C85.3943 117.928 86.2422 115.579 87.3651 113.425C88.488 111.271 89.8745 109.403 91.5245 107.822C93.1745 106.218 95.0651 104.969 97.1964 104.075C99.3276 103.181 101.699 102.734 104.312 102.734C106.604 102.734 108.655 102.952 110.465 103.388C111.661 103.672 112.804 104.029 113.892 104.459C114.865 104.844 115.286 105.959 114.896 106.93L113.186 111.187C112.768 112.227 111.579 112.715 110.53 112.321C109.941 112.1 109.358 111.895 108.781 111.706C107.589 111.317 106.237 111.122 104.724 111.122C103.097 111.122 101.642 111.592 100.359 112.531C99.0984 113.471 98.0214 114.731 97.1276 116.312C96.2568 117.894 95.5922 119.67 95.1339 121.641C94.6755 123.589 94.4464 125.571 94.4464 127.588C94.4464 129.031 94.6755 130.246 95.1339 131.231C95.6151 132.217 96.2911 132.961 97.162 133.466C98.0557 133.97 99.1214 134.222 100.359 134.222C102.101 134.222 103.716 133.958 105.206 133.431C105.751 133.23 106.302 133.012 106.859 132.777C108.234 132.197 109.812 133.168 109.812 134.66V138.654C109.812 139.396 109.405 140.083 108.732 140.394C107.438 140.992 106.068 141.478 104.621 141.853C102.765 142.334 100.645 142.575 98.262 142.575Z" fill="white"/>
<path d="M118.64 141.888C117.368 141.888 116.42 140.717 116.683 139.473L123.982 105.041C124.178 104.117 124.994 103.456 125.939 103.456H132.197C133.468 103.456 134.417 104.627 134.153 105.871L126.854 140.302C126.658 141.226 125.842 141.888 124.898 141.888H118.64ZM131.159 98.6781C129.692 98.6781 128.455 98.3573 127.446 97.7156C126.461 97.074 125.968 95.9854 125.968 94.45C125.968 93.1208 126.209 92.0094 126.69 91.1156C127.194 90.2219 127.916 89.5458 128.856 89.0875C129.795 88.6292 130.918 88.4 132.224 88.4C133.599 88.4 134.791 88.6979 135.799 89.2938C136.831 89.8896 137.346 90.9667 137.346 92.525C137.346 94.3583 136.842 95.8479 135.834 96.9938C134.826 98.1167 133.267 98.6781 131.159 98.6781Z" fill="white"/>
<path d="M135.931 158.8C134.66 158.8 133.711 157.629 133.975 156.384L144.882 105.041C145.078 104.117 145.894 103.456 146.838 103.456H150.915C152.098 103.456 153.022 104.478 152.905 105.655L152.561 109.089C152.55 109.202 152.639 109.3 152.752 109.3C152.813 109.3 152.871 109.271 152.907 109.221C153.696 108.15 154.605 107.122 155.634 106.138C156.688 105.129 157.891 104.316 159.243 103.697C160.595 103.055 162.096 102.734 163.746 102.734C165.603 102.734 167.356 103.193 169.006 104.109C170.656 105.026 171.996 106.516 173.028 108.578C174.059 110.618 174.574 113.345 174.574 116.759C174.574 119.257 174.299 121.744 173.749 124.219C173.222 126.671 172.443 129.008 171.412 131.231C170.404 133.431 169.166 135.391 167.699 137.109C166.256 138.805 164.617 140.146 162.784 141.131C160.951 142.094 158.945 142.575 156.768 142.575C155.21 142.575 153.892 142.334 152.815 141.853C151.738 141.349 150.821 140.673 150.065 139.825C149.353 139.001 148.695 138.08 148.09 137.062C148.057 137.006 147.997 136.972 147.932 136.972C147.836 136.972 147.757 137.046 147.749 137.142C147.613 138.932 147.434 140.583 147.212 142.094C146.983 143.675 146.673 145.348 146.284 147.113L144.145 157.214C143.949 158.139 143.133 158.8 142.188 158.8H135.931ZM155.015 134.222C156.023 134.222 156.986 133.901 157.903 133.259C158.819 132.595 159.656 131.701 160.412 130.578C161.168 129.432 161.821 128.138 162.371 126.694C162.921 125.227 163.345 123.68 163.643 122.053C163.941 120.426 164.09 118.799 164.09 117.172C164.09 115.155 163.712 113.643 162.956 112.634C162.222 111.626 161.099 111.122 159.587 111.122C158.487 111.122 157.479 111.408 156.562 111.981C155.668 112.554 154.878 113.322 154.19 114.284C153.503 115.247 152.907 116.335 152.403 117.55C151.898 118.742 151.486 119.979 151.165 121.263C150.844 122.546 150.604 123.783 150.443 124.975C150.306 126.167 150.237 127.232 150.237 128.172C150.237 129.982 150.661 131.449 151.509 132.572C152.38 133.672 153.548 134.222 155.015 134.222Z" fill="white"/>
<path d="M196.024 142.575C193.022 142.575 190.376 142.036 188.084 140.959C185.815 139.859 184.039 138.209 182.756 136.009C181.472 133.809 180.831 131.048 180.831 127.725C180.831 124.517 181.289 121.423 182.206 118.444C183.122 115.442 184.486 112.76 186.296 110.4C188.13 108.04 190.376 106.172 193.034 104.797C195.715 103.422 198.809 102.734 202.315 102.734C206.623 102.734 209.843 103.72 211.974 105.691C214.129 107.639 215.206 110.148 215.206 113.219C215.206 115.235 214.747 117.069 213.831 118.719C212.937 120.369 211.573 121.79 209.74 122.981C207.907 124.15 205.604 125.055 202.831 125.697C200.058 126.316 196.804 126.625 193.068 126.625H192.04C191.63 126.625 191.292 126.939 191.246 127.347C191.246 127.553 191.246 127.782 191.246 128.034C191.246 130.097 191.842 131.735 193.034 132.95C194.226 134.165 195.91 134.772 198.087 134.772C200.104 134.772 201.937 134.543 203.587 134.084C204.485 133.835 205.47 133.498 206.544 133.072C207.906 132.532 209.431 133.499 209.431 134.964V138.37C209.431 139.134 208.998 139.837 208.298 140.145C206.648 140.874 204.974 141.443 203.278 141.853C201.192 142.334 198.774 142.575 196.024 142.575ZM192.855 118.155C192.61 118.91 193.203 119.647 193.996 119.647C196.655 119.647 198.809 119.36 200.459 118.787C202.132 118.215 203.346 117.458 204.103 116.519C204.882 115.579 205.271 114.559 205.271 113.459C205.271 112.359 204.951 111.546 204.309 111.019C203.69 110.469 202.808 110.194 201.662 110.194C200.379 110.194 199.107 110.595 197.846 111.397C196.586 112.199 195.474 113.31 194.512 114.731C193.816 115.759 193.264 116.9 192.855 118.155Z" fill="white"/>
<path d="M229.299 142.575C226.847 142.575 224.705 142.403 222.871 142.059C221.479 141.795 220.154 141.395 218.897 140.859C218.204 140.564 217.784 139.866 217.784 139.113V135.268C217.784 133.731 219.459 132.751 220.881 133.335C221.605 133.633 222.338 133.894 223.078 134.119C224.911 134.646 226.802 134.909 228.749 134.909C229.827 134.909 230.835 134.76 231.774 134.463C232.737 134.165 233.516 133.706 234.112 133.088C234.708 132.469 235.006 131.69 235.006 130.75C235.006 130.108 234.857 129.535 234.559 129.031C234.261 128.527 233.688 127.977 232.84 127.381C232.015 126.763 230.812 126.018 229.231 125.147C227.649 124.253 226.297 123.336 225.174 122.397C224.074 121.457 223.227 120.392 222.631 119.2C222.058 118.008 221.771 116.61 221.771 115.006C221.771 112.348 222.356 110.114 223.524 108.303C224.693 106.47 226.366 105.083 228.543 104.144C230.743 103.204 233.367 102.734 236.415 102.734C238.638 102.734 240.781 102.986 242.843 103.491C244.357 103.861 245.846 104.41 247.311 105.138C248.228 105.594 248.568 106.707 248.139 107.637L246.43 111.349C245.93 112.436 244.595 112.837 243.517 112.316C242.757 111.948 241.971 111.619 241.159 111.328C239.646 110.778 238.134 110.503 236.621 110.503C235.498 110.503 234.49 110.767 233.596 111.294C232.703 111.821 232.256 112.634 232.256 113.734C232.256 114.33 232.416 114.88 232.737 115.384C233.058 115.866 233.596 116.358 234.353 116.863C235.132 117.367 236.174 117.963 237.481 118.65C239.039 119.452 240.414 120.346 241.606 121.331C242.82 122.294 243.771 123.417 244.459 124.7C245.146 125.96 245.49 127.461 245.49 129.203C245.49 132.136 244.826 134.6 243.496 136.594C242.167 138.565 240.288 140.054 237.859 141.062C235.453 142.071 232.599 142.575 229.299 142.575Z" fill="white"/>
<path d="M94.2435 212.288C93.3634 212.288 92.5867 211.712 92.3303 210.87L89.5499 201.742C89.2935 200.9 88.5168 200.325 87.6367 200.325H72.2779C71.3978 200.325 70.6211 200.9 70.3647 201.742L67.5843 210.87C67.3279 211.712 66.5512 212.288 65.6711 212.288H58.4943C57.1155 212.288 56.1502 210.925 56.6075 209.624L72.939 163.162C73.2205 162.361 73.9769 161.825 74.8258 161.825H85.0218C85.8699 161.825 86.6257 162.36 86.9079 163.16L103.303 209.622C103.762 210.923 102.796 212.288 101.417 212.288H94.2435ZM83.856 191.387C85.2047 191.387 86.1668 190.08 85.7654 188.792L82.9307 179.7C82.7016 178.921 82.3922 177.924 82.0026 176.709C81.6359 175.472 81.2578 174.223 80.8682 172.963C80.626 172.115 79.3124 172.112 79.064 172.958C79.0468 173.016 79.0295 173.075 79.012 173.134C78.6224 174.509 78.2443 175.816 77.8776 177.053C77.5109 178.291 77.2474 179.173 77.087 179.7L74.2775 188.797C73.8802 190.084 74.842 191.387 76.1885 191.387H83.856Z" fill="white"/>
<path d="M131.159 173.134C135.49 173.134 138.985 174.819 141.643 178.188C144.324 181.556 145.665 186.495 145.665 193.003C145.665 197.357 145.035 201.024 143.774 204.003C142.514 206.959 140.772 209.194 138.549 210.706C136.327 212.219 133.771 212.975 130.884 212.975C129.028 212.975 127.435 212.746 126.106 212.288C124.777 211.806 123.642 211.199 122.703 210.466C121.807 209.745 121.026 208.983 120.36 208.179C120.298 208.104 120.205 208.059 120.107 208.059C119.903 208.059 119.75 208.247 119.787 208.448C119.933 209.241 120.046 210.051 120.124 210.878C120.216 211.841 120.262 212.78 120.262 213.697V227.2C120.262 228.305 119.367 229.2 118.262 229.2H111.778C110.673 229.2 109.778 228.305 109.778 227.2V175.856C109.778 174.752 110.673 173.856 111.778 173.856H116.81C117.695 173.856 118.475 174.439 118.727 175.288L119.701 178.572C119.748 178.731 119.895 178.841 120.061 178.841C120.187 178.841 120.304 178.778 120.375 178.674C121.04 177.707 121.839 176.811 122.771 175.988C123.757 175.117 124.937 174.429 126.312 173.925C127.71 173.398 129.326 173.134 131.159 173.134ZM127.79 181.522C125.957 181.522 124.502 181.9 123.424 182.656C122.347 183.413 121.557 184.547 121.053 186.059C120.571 187.572 120.308 189.485 120.262 191.8V192.934C120.262 195.409 120.491 197.506 120.949 199.225C121.431 200.944 122.221 202.25 123.321 203.144C124.444 204.038 125.98 204.484 127.928 204.484C129.532 204.484 130.849 204.038 131.881 203.144C132.912 202.25 133.68 200.944 134.184 199.225C134.711 197.483 134.974 195.364 134.974 192.866C134.974 189.107 134.39 186.277 133.221 184.375C132.053 182.473 130.242 181.522 127.79 181.522Z" fill="white"/>
<path d="M175.709 173.134C180.04 173.134 183.535 174.819 186.193 178.188C188.874 181.556 190.215 186.495 190.215 193.003C190.215 197.357 189.585 201.024 188.324 204.003C187.064 206.959 185.322 209.194 183.099 210.706C180.877 212.219 178.321 212.975 175.434 212.975C173.578 212.975 171.985 212.746 170.656 212.288C169.327 211.806 168.192 211.199 167.253 210.466C166.357 209.745 165.576 208.983 164.91 208.179C164.848 208.104 164.755 208.059 164.657 208.059C164.453 208.059 164.3 208.247 164.337 208.448C164.483 209.241 164.596 210.051 164.674 210.878C164.766 211.841 164.812 212.78 164.812 213.697V227.2C164.812 228.305 163.917 229.2 162.812 229.2H156.328C155.223 229.2 154.328 228.305 154.328 227.2V175.856C154.328 174.752 155.223 173.856 156.328 173.856H161.36C162.245 173.856 163.025 174.439 163.277 175.288L164.251 178.572C164.298 178.731 164.445 178.841 164.611 178.841C164.737 178.841 164.854 178.778 164.925 178.674C165.59 177.707 166.389 176.811 167.321 175.988C168.307 175.117 169.487 174.429 170.862 173.925C172.26 173.398 173.876 173.134 175.709 173.134ZM172.34 181.522C170.507 181.522 169.052 181.9 167.974 182.656C166.897 183.413 166.107 184.547 165.603 186.059C165.121 187.572 164.858 189.485 164.812 191.8V192.934C164.812 195.409 165.041 197.506 165.499 199.225C165.981 200.944 166.771 202.25 167.871 203.144C168.994 204.038 170.53 204.484 172.478 204.484C174.082 204.484 175.399 204.038 176.431 203.144C177.462 202.25 178.23 200.944 178.734 199.225C179.261 197.483 179.524 195.364 179.524 192.866C179.524 189.107 178.94 186.277 177.771 184.375C176.603 182.473 174.792 181.522 172.34 181.522Z" fill="white"/>
<path d="M91.3964 79.7625C91.3964 80.8671 90.5009 81.7625 89.3964 81.7625H84.6776C83.573 81.7625 82.6776 80.8671 82.6776 79.7625V49.9C82.6776 48.7954 81.7822 47.9 80.6776 47.9H73.512C72.4074 47.9 71.512 47.0046 71.512 45.9V42.6437C71.512 41.5392 72.4074 40.6437 73.512 40.6437H100.562C101.667 40.6437 102.562 41.5392 102.562 42.6438V45.9C102.562 47.0046 101.667 47.9 100.562 47.9H93.3964C92.2918 47.9 91.3964 48.7954 91.3964 49.9V79.7625Z" fill="white"/>
<path d="M114.793 38C115.898 38 116.793 38.8954 116.793 40V46.9156C116.793 48.4719 116.737 49.9531 116.624 51.3594C116.545 52.5492 116.479 53.4437 116.427 54.043C116.413 54.2026 116.538 54.3406 116.698 54.3406C116.792 54.3406 116.879 54.2919 116.93 54.2128C117.588 53.1839 118.358 52.3452 119.24 51.6969C120.178 51.0219 121.209 50.525 122.334 50.2062C123.459 49.8875 124.668 49.7281 125.962 49.7281C128.231 49.7281 130.209 50.1312 131.896 50.9375C133.584 51.725 134.896 52.9719 135.834 54.6781C136.771 56.3656 137.24 58.5594 137.24 61.2594V79.7625C137.24 80.8671 136.345 81.7625 135.24 81.7625H130.662C129.557 81.7625 128.662 80.8671 128.662 79.7625V63.3969C128.662 61.1469 128.249 59.45 127.424 58.3063C126.599 57.1625 125.324 56.5906 123.599 56.5906C121.874 56.5906 120.515 56.9937 119.521 57.8C118.528 58.5875 117.824 59.7594 117.412 61.3156C116.999 62.8531 116.793 64.7375 116.793 66.9688V79.7625C116.793 80.8671 115.898 81.7625 114.793 81.7625H110.215C109.111 81.7625 108.215 80.8671 108.215 79.7625V40C108.215 38.8954 109.111 38 110.215 38H114.793Z" fill="white"/>
<path d="M159.037 49.7281C161.943 49.7281 164.446 50.2906 166.546 51.4156C168.646 52.5219 170.268 54.1344 171.412 56.2531C172.556 58.3719 173.128 60.9594 173.128 64.0156V66.1781C173.128 67.2827 172.232 68.1781 171.128 68.1781H154.928C153.794 68.1781 152.859 69.1312 153.108 70.2383C153.439 71.7048 154.075 72.9212 155.015 73.8875C156.384 75.2563 158.278 75.9406 160.696 75.9406C162.703 75.9406 164.54 75.7344 166.209 75.3219C166.946 75.1398 167.691 74.9175 168.446 74.655C169.829 74.1741 171.356 75.1458 171.356 76.6101V78.8604C171.356 79.6214 170.927 80.3244 170.226 80.6196C169.014 81.1293 167.76 81.5196 166.462 81.7906C164.774 82.1469 162.721 82.325 160.303 82.325C157.153 82.325 154.359 81.7438 151.921 80.5813C149.503 79.4188 147.599 77.6469 146.212 75.2656C144.843 72.8844 144.159 69.8844 144.159 66.2656C144.159 62.5906 144.778 59.5344 146.015 57.0969C147.271 54.6406 149.015 52.8031 151.246 51.5844C153.478 50.3469 156.074 49.7281 159.037 49.7281ZM159.093 55.8312C157.424 55.8312 156.037 56.3656 154.931 57.4344C154.213 58.1393 153.696 59.1092 153.378 60.3442C153.089 61.4701 154.037 62.4688 155.199 62.4688H163.054C164.17 62.4688 165.102 61.5436 164.849 60.4567C164.734 59.9658 164.578 59.5022 164.381 59.0656C163.949 58.0719 163.293 57.2844 162.412 56.7031C161.549 56.1219 160.443 55.8312 159.093 55.8312Z" fill="white"/>
<path d="M24.0007 139.363C22.7298 139.363 21.7812 138.192 22.044 136.949L29.8892 99.8302C30.0846 98.9054 30.9008 98.2438 31.846 98.2438H40.3214C44.4464 98.2438 47.6995 99.1344 50.0807 100.916C52.4807 102.678 53.6807 105.547 53.6807 109.522C53.6807 111.697 53.287 113.6 52.4995 115.231C51.712 116.863 50.6339 118.231 49.2651 119.338C48.447 120.008 47.5566 120.585 46.5939 121.07C45.5605 121.59 45.0045 122.801 45.4527 123.867L50.7988 136.588C51.3528 137.906 50.3849 139.363 48.9551 139.363H44.0214C43.1839 139.363 42.435 138.841 42.1451 138.055L37.2882 124.892C36.9983 124.106 36.2495 123.584 35.4119 123.584H35.0791C34.1345 123.584 33.3187 124.245 33.1226 125.169L30.4482 137.778C30.2522 138.702 29.4364 139.363 28.4917 139.363H24.0007ZM35.4058 114.351C35.1708 115.456 36.0135 116.497 37.1432 116.497C38.362 116.497 39.4495 116.366 40.4057 116.103C41.3807 115.822 42.2057 115.419 42.8807 114.894C43.5557 114.35 44.062 113.675 44.3995 112.869C44.7557 112.044 44.9339 111.088 44.9339 110C44.9339 108.462 44.4839 107.309 43.5839 106.541C42.6839 105.772 41.287 105.388 39.3932 105.388H38.9314C37.9871 105.388 37.1715 106.048 36.9751 106.971L35.4058 114.351Z" fill="white"/>
<path d="M70.1057 139.925C67.6495 139.925 65.4839 139.484 63.6089 138.603C61.7526 137.703 60.2995 136.353 59.2495 134.553C58.1995 132.753 57.6745 130.494 57.6745 127.775C57.6745 125.15 58.0495 122.619 58.7995 120.181C59.5495 117.725 60.6651 115.531 62.1464 113.6C63.6464 111.669 65.4839 110.141 67.6589 109.016C69.8526 107.891 72.3839 107.328 75.2526 107.328C78.7776 107.328 81.412 108.134 83.1557 109.747C84.9182 111.341 85.7995 113.394 85.7995 115.906C85.7995 117.556 85.4245 119.056 84.6745 120.406C83.9432 121.756 82.8276 122.919 81.3276 123.894C79.8276 124.85 77.9432 125.591 75.6745 126.116C73.4057 126.622 70.7432 126.875 67.687 126.875H66.8459C66.5106 126.875 66.2334 127.132 66.1964 127.466C66.1964 127.634 66.1964 127.822 66.1964 128.028C66.1964 129.716 66.6839 131.056 67.6589 132.05C68.6339 133.044 70.012 133.541 71.7932 133.541C73.4432 133.541 74.9432 133.353 76.2932 132.978C76.8763 132.816 77.5049 132.609 78.179 132.356C79.5508 131.841 81.0745 132.805 81.0745 134.27V136.258C81.0745 137.022 80.6417 137.725 79.9399 138.028C78.6567 138.581 77.3568 139.016 76.0401 139.334C74.3339 139.728 72.3557 139.925 70.1057 139.925ZM67.5129 119.945C67.3119 120.562 67.7968 121.166 68.4464 121.166C70.6214 121.166 72.3839 120.931 73.7339 120.463C75.1026 119.994 76.0964 119.375 76.7151 118.606C77.3526 117.838 77.6714 117.003 77.6714 116.103C77.6714 115.203 77.4089 114.538 76.8839 114.106C76.3776 113.656 75.6557 113.431 74.7182 113.431C73.6682 113.431 72.6276 113.759 71.5964 114.416C70.5651 115.072 69.6557 115.981 68.8682 117.144C68.2988 117.984 67.847 118.918 67.5129 119.945Z" fill="white"/>
<path d="M101.493 139.925C99.3182 139.925 97.3401 139.541 95.5589 138.772C93.7964 137.984 92.3901 136.747 91.3401 135.059C90.3089 133.353 89.7932 131.122 89.7932 128.366C89.7932 126.097 90.0276 123.922 90.4964 121.841C90.9651 119.759 91.6589 117.838 92.5776 116.075C93.4964 114.313 94.6307 112.784 95.9807 111.491C97.3307 110.178 98.8776 109.156 100.621 108.425C102.365 107.694 104.306 107.328 106.443 107.328C108.318 107.328 109.996 107.506 111.478 107.863C112.342 108.068 113.172 108.32 113.967 108.618C114.946 108.986 115.367 110.103 114.977 111.073L113.842 113.899C113.424 114.939 112.235 115.427 111.182 115.043C110.819 114.911 110.458 114.786 110.099 114.669C109.124 114.35 108.018 114.191 106.781 114.191C105.449 114.191 104.259 114.575 103.209 115.344C102.178 116.113 101.296 117.144 100.565 118.438C99.8526 119.731 99.3089 121.184 98.9339 122.797C98.5589 124.391 98.3714 126.013 98.3714 127.663C98.3714 128.844 98.5589 129.838 98.9339 130.644C99.3276 131.45 99.8807 132.059 100.593 132.472C101.324 132.884 102.196 133.091 103.209 133.091C104.634 133.091 105.956 132.875 107.174 132.444C107.441 132.345 107.71 132.242 107.98 132.134C109.365 131.578 110.943 132.55 110.943 134.041V136.498C110.943 137.239 110.537 137.928 109.86 138.231C108.861 138.679 107.806 139.047 106.696 139.334C105.178 139.728 103.443 139.925 101.493 139.925Z" fill="white"/>
<path d="M118.615 139.363C117.343 139.363 116.395 138.192 116.658 136.948L122.476 109.504C122.672 108.58 123.488 107.919 124.432 107.919H128.809C130.081 107.919 131.029 109.09 130.766 110.334L124.948 137.777C124.752 138.701 123.936 139.363 122.992 139.363H118.615ZM128.409 104.009C127.209 104.009 126.196 103.747 125.371 103.222C124.565 102.697 124.162 101.806 124.162 100.55C124.162 99.4625 124.359 98.5531 124.753 97.8219C125.165 97.0906 125.756 96.5375 126.524 96.1625C127.293 95.7875 128.212 95.6 129.281 95.6C130.406 95.6 131.381 95.8438 132.206 96.3313C133.049 96.8188 133.471 97.7 133.471 98.975C133.471 100.475 133.059 101.694 132.234 102.631C131.409 103.55 130.134 104.009 128.409 104.009Z" fill="white"/>
<path d="M132.763 153.2C131.491 153.2 130.542 152.029 130.806 150.784L139.575 109.503C139.772 108.579 140.587 107.919 141.532 107.919H144.171C145.354 107.919 146.279 108.94 146.161 110.118L145.92 112.528C145.911 112.62 145.983 112.7 146.076 112.7C146.126 112.7 146.173 112.676 146.203 112.636C146.848 111.759 147.592 110.918 148.434 110.113C149.296 109.288 150.281 108.622 151.387 108.116C152.493 107.591 153.721 107.328 155.071 107.328C156.59 107.328 158.024 107.703 159.374 108.453C160.724 109.203 161.821 110.422 162.665 112.109C163.509 113.778 163.931 116.009 163.931 118.803C163.931 120.847 163.706 122.881 163.256 124.906C162.824 126.913 162.187 128.825 161.343 130.644C160.518 132.444 159.506 134.047 158.306 135.453C157.124 136.841 155.784 137.938 154.284 138.744C152.784 139.531 151.143 139.925 149.362 139.925C148.087 139.925 147.009 139.728 146.128 139.334C145.246 138.922 144.496 138.369 143.878 137.675C143.295 137.001 142.756 136.248 142.262 135.415C142.235 135.369 142.186 135.341 142.132 135.341C142.054 135.341 141.989 135.401 141.983 135.479C141.872 136.945 141.725 138.295 141.543 139.531C141.356 140.825 141.103 142.194 140.784 143.638L139.095 151.614C138.899 152.539 138.083 153.2 137.138 153.2H132.763ZM147.928 133.091C148.753 133.091 149.54 132.828 150.29 132.303C151.04 131.759 151.724 131.028 152.343 130.109C152.962 129.172 153.496 128.113 153.946 126.931C154.396 125.731 154.743 124.466 154.987 123.134C155.231 121.803 155.353 120.472 155.353 119.141C155.353 117.491 155.043 116.253 154.424 115.428C153.824 114.603 152.906 114.191 151.668 114.191C150.768 114.191 149.943 114.425 149.193 114.894C148.462 115.363 147.815 115.991 147.253 116.778C146.69 117.566 146.203 118.456 145.79 119.45C145.378 120.425 145.04 121.438 144.778 122.488C144.515 123.538 144.318 124.55 144.187 125.525C144.074 126.5 144.018 127.372 144.018 128.141C144.018 129.622 144.365 130.822 145.059 131.741C145.771 132.641 146.728 133.091 147.928 133.091Z" fill="white"/>
<path d="M181.481 139.925C179.024 139.925 176.859 139.484 174.984 138.603C173.128 137.703 171.674 136.353 170.624 134.553C169.574 132.753 169.049 130.494 169.049 127.775C169.049 125.15 169.424 122.619 170.174 120.181C170.924 117.725 172.04 115.531 173.521 113.6C175.021 111.669 176.859 110.141 179.034 109.016C181.228 107.891 183.759 107.328 186.628 107.328C190.153 107.328 192.787 108.134 194.531 109.747C196.293 111.341 197.174 113.394 197.174 115.906C197.174 117.556 196.799 119.056 196.049 120.406C195.318 121.756 194.203 122.919 192.703 123.894C191.203 124.85 189.318 125.591 187.049 126.116C184.781 126.622 182.118 126.875 179.062 126.875H178.221C177.886 126.875 177.608 127.132 177.571 127.466C177.571 127.634 177.571 127.822 177.571 128.028C177.571 129.716 178.059 131.056 179.034 132.05C180.009 133.044 181.387 133.541 183.168 133.541C184.818 133.541 186.318 133.353 187.668 132.978C188.251 132.816 188.88 132.609 189.554 132.356C190.926 131.841 192.449 132.805 192.449 134.27V136.258C192.449 137.022 192.017 137.725 191.315 138.028C190.032 138.581 188.732 139.016 187.415 139.334C185.709 139.728 183.731 139.925 181.481 139.925ZM178.888 119.945C178.687 120.562 179.172 121.166 179.821 121.166C181.996 121.166 183.759 120.931 185.109 120.463C186.478 119.994 187.471 119.375 188.09 118.606C188.728 117.838 189.046 117.003 189.046 116.103C189.046 115.203 188.784 114.538 188.259 114.106C187.753 113.656 187.031 113.431 186.093 113.431C185.043 113.431 184.003 113.759 182.971 114.416C181.94 115.072 181.031 115.981 180.243 117.144C179.674 117.984 179.222 118.918 178.888 119.945Z" fill="white"/>
<path d="M208.706 139.925C206.699 139.925 204.946 139.784 203.446 139.503C202.383 139.301 201.367 139.003 200.401 138.607C199.703 138.322 199.284 137.622 199.284 136.869V134.574C199.284 133.037 200.963 132.055 202.402 132.595C202.803 132.745 203.208 132.883 203.615 133.006C205.115 133.438 206.662 133.653 208.256 133.653C209.137 133.653 209.962 133.531 210.731 133.288C211.518 133.044 212.156 132.669 212.643 132.163C213.131 131.656 213.374 131.019 213.374 130.25C213.374 129.725 213.253 129.256 213.009 128.844C212.765 128.431 212.296 127.981 211.603 127.494C210.928 126.988 209.943 126.378 208.649 125.666C207.356 124.934 206.249 124.184 205.331 123.416C204.431 122.647 203.737 121.775 203.249 120.8C202.781 119.825 202.546 118.681 202.546 117.369C202.546 115.194 203.024 113.366 203.981 111.884C204.937 110.384 206.306 109.25 208.087 108.481C209.887 107.713 212.034 107.328 214.528 107.328C216.346 107.328 218.099 107.534 219.787 107.947C220.924 108.225 222.044 108.626 223.147 109.151C224.072 109.591 224.411 110.707 223.983 111.637L222.893 114.006C222.392 115.092 221.057 115.491 219.969 114.994C219.462 114.762 218.942 114.55 218.409 114.359C217.171 113.909 215.934 113.684 214.696 113.684C213.778 113.684 212.953 113.9 212.221 114.331C211.49 114.763 211.124 115.428 211.124 116.328C211.124 116.816 211.256 117.266 211.518 117.678C211.781 118.072 212.221 118.475 212.84 118.888C213.478 119.3 214.331 119.788 215.399 120.35C216.674 121.006 217.799 121.738 218.774 122.544C219.768 123.331 220.546 124.25 221.109 125.3C221.671 126.331 221.953 127.559 221.953 128.984C221.953 131.384 221.409 133.4 220.321 135.031C219.234 136.644 217.696 137.863 215.709 138.688C213.74 139.513 211.406 139.925 208.706 139.925Z" fill="white"/>
<path d="M98.4748 196.963C97.5947 196.963 96.818 196.387 96.5615 195.545L94.4437 188.592C94.1872 187.75 93.4105 187.175 92.5304 187.175H80.5029C79.6228 187.175 78.8461 187.75 78.5897 188.592L76.4718 195.545C76.2153 196.387 75.4387 196.963 74.5586 196.963H69.4693C68.0905 196.963 67.1252 195.6 67.5825 194.299L80.689 157.012C80.9705 156.211 81.7269 155.675 82.5758 155.675H90.4031C91.2511 155.675 92.0069 156.21 92.2891 157.01L105.446 194.297C105.906 195.598 104.94 196.963 103.56 196.963H98.4748ZM89.2123 179.863C90.561 179.863 91.523 178.555 91.1216 177.267L88.9495 170.3C88.762 169.663 88.5089 168.847 88.1901 167.853C87.8901 166.841 87.5807 165.819 87.262 164.788C87.0638 164.094 85.989 164.091 85.7858 164.784C85.7717 164.831 85.7575 164.88 85.7432 164.928C85.4245 166.053 85.1151 167.122 84.8151 168.134C84.5151 169.147 84.2995 169.869 84.1682 170.3L82.015 177.272C81.6177 178.559 82.5795 179.863 83.9259 179.863H89.2123Z" fill="white"/>
<path d="M128.409 164.928C131.953 164.928 134.812 166.306 136.987 169.062C139.181 171.819 140.278 175.859 140.278 181.184C140.278 184.747 139.762 187.747 138.731 190.184C137.699 192.603 136.274 194.431 134.456 195.669C132.637 196.906 130.546 197.525 128.184 197.525C126.665 197.525 125.362 197.338 124.274 196.963C123.187 196.569 122.259 196.072 121.49 195.472C120.758 194.882 120.119 194.259 119.573 193.601C119.522 193.539 119.447 193.503 119.367 193.503C119.199 193.503 119.074 193.656 119.104 193.821C119.224 194.47 119.316 195.133 119.381 195.809C119.456 196.597 119.493 197.366 119.493 198.116V208.8C119.493 209.905 118.598 210.8 117.493 210.8H112.915C111.811 210.8 110.915 209.905 110.915 208.8V167.519C110.915 166.414 111.811 165.519 112.915 165.519H116.397C117.283 165.519 118.063 166.101 118.315 166.95L119.034 169.377C119.073 169.507 119.193 169.597 119.329 169.597C119.432 169.597 119.527 169.545 119.585 169.461C120.13 168.669 120.784 167.937 121.546 167.263C122.353 166.55 123.318 165.988 124.443 165.575C125.587 165.144 126.909 164.928 128.409 164.928ZM125.653 171.791C124.153 171.791 122.962 172.1 122.081 172.719C121.199 173.338 120.553 174.266 120.14 175.503C119.746 176.741 119.531 178.306 119.493 180.2V181.128C119.493 183.153 119.681 184.869 120.056 186.275C120.449 187.681 121.096 188.75 121.996 189.481C122.915 190.213 124.171 190.578 125.765 190.578C127.078 190.578 128.156 190.213 128.999 189.481C129.843 188.75 130.471 187.681 130.884 186.275C131.315 184.85 131.531 183.116 131.531 181.072C131.531 177.997 131.053 175.681 130.096 174.125C129.14 172.569 127.659 171.791 125.653 171.791Z" fill="white"/>
<path d="M164.859 164.928C168.403 164.928 171.262 166.306 173.437 169.062C175.631 171.819 176.728 175.859 176.728 181.184C176.728 184.747 176.212 187.747 175.181 190.184C174.149 192.603 172.724 194.431 170.906 195.669C169.087 196.906 166.996 197.525 164.634 197.525C163.115 197.525 161.812 197.338 160.724 196.963C159.637 196.569 158.709 196.072 157.94 195.472C157.208 194.882 156.569 194.259 156.023 193.601C155.972 193.539 155.897 193.503 155.817 193.503C155.649 193.503 155.524 193.656 155.554 193.821C155.674 194.47 155.766 195.133 155.831 195.809C155.906 196.597 155.943 197.366 155.943 198.116V208.8C155.943 209.905 155.048 210.8 153.943 210.8H149.365C148.261 210.8 147.365 209.905 147.365 208.8V167.519C147.365 166.414 148.261 165.519 149.365 165.519H152.847C153.733 165.519 154.513 166.101 154.765 166.95L155.484 169.377C155.523 169.507 155.643 169.597 155.779 169.597C155.882 169.597 155.977 169.545 156.035 169.461C156.58 168.669 157.234 167.937 157.996 167.263C158.803 166.55 159.768 165.988 160.893 165.575C162.037 165.144 163.359 164.928 164.859 164.928ZM162.103 171.791C160.603 171.791 159.412 172.1 158.531 172.719C157.649 173.338 157.003 174.266 156.59 175.503C156.196 176.741 155.981 178.306 155.943 180.2V181.128C155.943 183.153 156.131 184.869 156.506 186.275C156.899 187.681 157.546 188.75 158.446 189.481C159.365 190.213 160.621 190.578 162.215 190.578C163.528 190.578 164.606 190.213 165.449 189.481C166.293 188.75 166.921 187.681 167.334 186.275C167.765 184.85 167.981 183.116 167.981 181.072C167.981 177.997 167.503 175.681 166.546 174.125C165.59 172.569 164.109 171.791 162.103 171.791Z" fill="white"/>
</g>
<path d="M89.5147 74.625C89.5147 75.7296 88.6152 76.625 87.5055 76.625H81.7918C80.6821 76.625 79.7825 75.7296 79.7825 74.625V41C79.7825 39.8954 78.883 39 77.7733 39H69.3283C68.2186 39 67.3191 38.1046 67.3191 37V32.9375C67.3191 31.8329 68.2186 30.9375 69.3283 30.9375H99.969C101.079 30.9375 101.978 31.8329 101.978 32.9375V37C101.978 38.1046 101.079 39 99.969 39H91.5239C90.4143 39 89.5147 39.8954 89.5147 41V74.625Z" fill="white"/>
<path d="M115.854 28C116.964 28 117.864 28.8954 117.864 30V37.9062C117.864 39.6354 117.801 41.2812 117.675 42.8438C117.587 44.1658 117.513 45.1597 117.455 45.8255C117.439 46.0029 117.579 46.1562 117.758 46.1562V46.1562C117.863 46.1562 117.96 46.1021 118.016 46.0142C118.75 44.871 119.61 43.9391 120.595 43.2188C121.641 42.4688 122.792 41.9167 124.048 41.5625C125.304 41.2083 126.654 41.0312 128.098 41.0312C130.631 41.0312 132.839 41.4792 134.722 42.375C136.606 43.25 138.071 44.6354 139.117 46.5312C140.164 48.4062 140.687 50.8438 140.687 53.8438V74.625C140.687 75.7296 139.788 76.625 138.678 76.625H133.121C132.011 76.625 131.112 75.7296 131.112 74.625V56.2188C131.112 53.7188 130.651 51.8333 129.731 50.5625C128.81 49.2917 127.386 48.6562 125.461 48.6562C123.535 48.6562 122.018 49.1042 120.909 50C119.8 50.875 119.015 52.1771 118.554 53.9062C118.094 55.6146 117.864 57.7083 117.864 60.1875V74.625C117.864 75.7296 116.964 76.625 115.854 76.625H110.298C109.188 76.625 108.288 75.7296 108.288 74.625V30C108.288 28.8954 109.188 28 110.298 28H115.854Z" fill="white"/>
<path d="M165.018 41.0312C168.262 41.0312 171.056 41.6562 173.4 42.9062C175.744 44.1354 177.554 45.9271 178.831 48.2812C180.108 50.6354 180.746 53.5104 180.746 56.9062V59.5312C180.746 60.6358 179.846 61.5312 178.737 61.5312H160.2C159.059 61.5312 158.124 62.4823 158.351 63.5945C158.705 65.3253 159.431 66.7521 160.528 67.875C162.056 69.3958 164.17 70.1562 166.87 70.1562C169.109 70.1562 171.16 69.9271 173.023 69.4688C173.953 69.24 174.896 68.9541 175.852 68.6111C177.235 68.1146 178.768 69.0864 178.768 70.5507V73.5385C178.768 74.2995 178.337 75.0017 177.634 75.3012C176.243 75.894 174.8 76.3457 173.306 76.6562C171.422 77.0521 169.13 77.25 166.43 77.25C162.914 77.25 159.796 76.6042 157.075 75.3125C154.375 74.0208 152.251 72.0521 150.702 69.4062C149.174 66.7604 148.41 63.4271 148.41 59.4062C148.41 55.3229 149.101 51.9271 150.482 49.2188C151.884 46.4896 153.831 44.4479 156.321 43.0938C158.812 41.7188 161.711 41.0312 165.018 41.0312ZM165.08 47.8125C163.218 47.8125 161.669 48.4062 160.434 49.5938C159.589 50.4206 158.992 51.5757 158.644 53.0591C158.379 54.1912 159.326 55.1875 160.494 55.1875H169.728C170.85 55.1875 171.782 54.2649 171.554 53.1721C171.423 52.5447 171.233 51.9561 170.982 51.4062C170.501 50.3021 169.769 49.4271 168.785 48.7812C167.822 48.1354 166.587 47.8125 165.08 47.8125Z" fill="white"/>
<path d="M14.01 140.625C12.7331 140.625 11.7801 139.455 12.0442 138.211L20.8956 96.5239C21.092 95.5992 21.9119 94.9375 22.8614 94.9375H32.503C37.1075 94.9375 40.7387 95.9271 43.3967 97.9062C46.0757 99.8646 47.4152 103.052 47.4152 107.469C47.4152 109.885 46.9757 112 46.0966 113.812C45.2176 115.625 44.0142 117.146 42.4863 118.375C41.5128 119.169 40.4476 119.846 39.2907 120.405C38.2453 120.91 37.688 122.123 38.1383 123.189L44.3285 137.85C44.885 139.168 43.9126 140.625 42.4762 140.625H36.4776C35.6361 140.625 34.8838 140.103 34.5926 139.317L29.0634 124.401C28.7722 123.616 28.0199 123.094 27.1785 123.094H26.4705C25.5216 123.094 24.702 123.755 24.5051 124.679L21.4447 139.04C21.2478 139.964 20.4282 140.625 19.4792 140.625H14.01ZM27.0161 112.835C26.7538 114.062 27.6944 115.219 28.9554 115.219V115.219C30.3159 115.219 31.5298 115.073 32.5972 114.781C33.6855 114.469 34.6064 114.021 35.3598 113.438C36.1133 112.833 36.6784 112.083 37.0551 111.188C37.4528 110.271 37.6516 109.208 37.6516 108C37.6516 106.292 37.1493 105.01 36.1447 104.156C35.1401 103.302 33.5808 102.875 31.467 102.875H30.7707C29.8221 102.875 29.0027 103.535 28.8054 104.459L27.0161 112.835Z" fill="white"/>
<path d="M65.7494 141.25C63.0076 141.25 60.5903 140.76 58.4973 139.781C56.4253 138.781 54.8033 137.281 53.6312 135.281C52.4592 133.281 51.8732 130.771 51.8732 127.75C51.8732 124.833 52.2917 122.021 53.1289 119.312C53.9661 116.583 55.2114 114.146 56.8648 112C58.5392 109.854 60.5903 108.156 63.0181 106.906C65.4668 105.656 68.2923 105.031 71.4945 105.031C75.4292 105.031 78.3698 105.927 80.3162 107.719C82.2836 109.49 83.2673 111.771 83.2673 114.562C83.2673 116.396 82.8487 118.062 82.0115 119.562C81.1953 121.062 79.95 122.354 78.2756 123.438C76.6013 124.5 74.4979 125.323 71.9654 125.906C69.4329 126.469 66.461 126.75 63.0495 126.75H62.1106C61.7363 126.75 61.4269 127.036 61.3856 127.406V127.406C61.3856 127.594 61.3856 127.802 61.3856 128.031C61.3856 129.906 61.9297 131.396 63.0181 132.5C64.1064 133.604 65.6447 134.156 67.633 134.156C69.4748 134.156 71.1492 133.948 72.6561 133.531C73.4007 133.325 74.2118 133.053 75.0894 132.715C76.462 132.186 77.9931 133.152 77.9931 134.617V137.314C77.9931 138.078 77.558 138.781 76.8545 139.087C75.3807 139.727 73.887 140.23 72.3735 140.594C70.4689 141.031 68.2609 141.25 65.7494 141.25ZM62.8551 119.05C62.6308 119.736 63.1721 120.406 63.8971 120.406V120.406C66.3249 120.406 68.2923 120.146 69.7992 119.625C71.3271 119.104 72.4363 118.417 73.127 117.562C73.8386 116.708 74.1944 115.781 74.1944 114.781C74.1944 113.781 73.9014 113.042 73.3153 112.562C72.7503 112.062 71.9445 111.812 70.898 111.812C69.726 111.812 68.5644 112.177 67.4133 112.906C66.2621 113.635 65.2471 114.646 64.368 115.938C63.7324 116.871 63.2281 117.909 62.8551 119.05Z" fill="white"/>
<path d="M100.785 141.25C98.3574 141.25 96.1493 140.823 94.161 139.969C92.1937 139.094 90.624 137.719 89.4519 135.844C88.3008 133.948 87.7252 131.469 87.7252 128.406C87.7252 125.885 87.9869 123.469 88.5101 121.156C89.0333 118.844 89.8077 116.708 90.8333 114.75C91.8588 112.792 93.125 111.094 94.632 109.656C96.1389 108.198 97.8656 107.062 99.812 106.25C101.758 105.438 103.925 105.031 106.311 105.031C108.404 105.031 110.277 105.229 111.93 105.625C112.965 105.87 113.956 106.174 114.902 106.538C115.883 106.915 116.305 108.031 115.914 109.001L114.484 112.543C114.065 113.583 112.87 114.071 111.814 113.682C111.336 113.505 110.862 113.341 110.392 113.188C109.303 112.833 108.069 112.656 106.687 112.656C105.201 112.656 103.872 113.083 102.7 113.938C101.549 114.792 100.565 115.938 99.7492 117.375C98.9539 118.812 98.3469 120.427 97.9283 122.219C97.5098 123.99 97.3005 125.792 97.3005 127.625C97.3005 128.938 97.5098 130.042 97.9283 130.938C98.3679 131.833 98.9853 132.51 99.7806 132.969C100.597 133.427 101.57 133.656 102.7 133.656C104.291 133.656 105.766 133.417 107.127 132.938C107.535 132.787 107.947 132.627 108.363 132.457C109.748 131.888 111.334 132.859 111.334 134.351V137.576C111.334 138.317 110.925 139.005 110.247 139.313C109.095 139.835 107.877 140.262 106.593 140.594C104.898 141.031 102.962 141.25 100.785 141.25Z" fill="white"/>
<path d="M119.621 140.625C118.344 140.625 117.391 139.454 117.656 138.21L124.244 107.273C124.441 106.349 125.261 105.688 126.21 105.688H131.552C132.829 105.688 133.782 106.858 133.517 108.102L126.929 139.04C126.732 139.964 125.912 140.625 124.963 140.625H119.621ZM130.829 101.344C129.49 101.344 128.36 101.052 127.439 100.469C126.539 99.8854 126.089 98.8958 126.089 97.5C126.089 96.2917 126.309 95.2812 126.748 94.4688C127.209 93.6562 127.868 93.0417 128.726 92.625C129.584 92.2083 130.61 92 131.803 92C133.058 92 134.147 92.2708 135.068 92.8125C136.009 93.3542 136.48 94.3333 136.48 95.75C136.48 97.4167 136.02 98.7708 135.099 99.8125C134.178 100.833 132.755 101.344 130.829 101.344Z" fill="white"/>
<path d="M135.414 156C134.136 156 133.183 154.828 133.448 153.584L143.331 107.272C143.529 106.348 144.348 105.688 145.297 105.688H148.67C149.859 105.688 150.788 106.709 150.669 107.887L150.376 110.808C150.365 110.911 150.446 111 150.55 111V111C150.606 111 150.659 110.973 150.692 110.929C151.412 109.954 152.242 109.02 153.182 108.125C154.145 107.208 155.244 106.469 156.478 105.906C157.713 105.323 159.084 105.031 160.591 105.031C162.286 105.031 163.887 105.448 165.394 106.281C166.901 107.115 168.126 108.469 169.067 110.344C170.009 112.198 170.48 114.677 170.48 117.781C170.48 120.052 170.229 122.312 169.727 124.562C169.245 126.792 168.534 128.917 167.592 130.938C166.671 132.938 165.541 134.719 164.201 136.281C162.883 137.823 161.386 139.042 159.712 139.938C158.038 140.812 156.206 141.25 154.218 141.25C152.795 141.25 151.591 141.031 150.608 140.594C149.624 140.135 148.787 139.521 148.096 138.75C147.446 138.001 146.844 137.164 146.293 136.238C146.262 136.188 146.207 136.156 146.148 136.156V136.156C146.061 136.156 145.988 136.224 145.981 136.31C145.857 137.938 145.693 139.439 145.49 140.812C145.281 142.25 144.999 143.771 144.643 145.375L142.72 154.414C142.523 155.339 141.703 156 140.754 156H135.414ZM152.617 133.656C153.538 133.656 154.417 133.365 155.254 132.781C156.091 132.177 156.855 131.365 157.546 130.344C158.236 129.302 158.833 128.125 159.335 126.812C159.838 125.479 160.225 124.073 160.497 122.594C160.769 121.115 160.905 119.635 160.905 118.156C160.905 116.323 160.56 114.948 159.869 114.031C159.199 113.115 158.174 112.656 156.792 112.656C155.788 112.656 154.867 112.917 154.03 113.438C153.213 113.958 152.491 114.656 151.863 115.531C151.236 116.406 150.691 117.396 150.231 118.5C149.771 119.583 149.394 120.708 149.101 121.875C148.808 123.042 148.588 124.167 148.442 125.25C148.316 126.333 148.253 127.302 148.253 128.156C148.253 129.802 148.64 131.135 149.415 132.156C150.21 133.156 151.277 133.656 152.617 133.656Z" fill="white"/>
<path d="M190.07 141.25C187.328 141.25 184.911 140.76 182.818 139.781C180.746 138.781 179.124 137.281 177.952 135.281C176.78 133.281 176.194 130.771 176.194 127.75C176.194 124.833 176.612 122.021 177.45 119.312C178.287 116.583 179.532 114.146 181.186 112C182.86 109.854 184.911 108.156 187.339 106.906C189.788 105.656 192.613 105.031 195.815 105.031C199.75 105.031 202.691 105.927 204.637 107.719C206.604 109.49 207.588 111.771 207.588 114.562C207.588 116.396 207.169 118.062 206.332 119.562C205.516 121.062 204.271 122.354 202.596 123.438C200.922 124.5 198.819 125.323 196.286 125.906C193.754 126.469 190.782 126.75 187.37 126.75H186.431C186.057 126.75 185.748 127.036 185.706 127.406V127.406C185.706 127.594 185.706 127.802 185.706 128.031C185.706 129.906 186.25 131.396 187.339 132.5C188.427 133.604 189.965 134.156 191.954 134.156C193.796 134.156 195.47 133.948 196.977 133.531C197.721 133.325 198.533 133.053 199.41 132.715C200.783 132.186 202.314 133.152 202.314 134.617V137.314C202.314 138.078 201.879 138.781 201.175 139.087C199.701 139.727 198.208 140.23 196.694 140.594C194.79 141.031 192.582 141.25 190.07 141.25ZM187.176 119.05C186.952 119.736 187.493 120.406 188.218 120.406V120.406C190.646 120.406 192.613 120.146 194.12 119.625C195.648 119.104 196.757 118.417 197.448 117.562C198.159 116.708 198.515 115.781 198.515 114.781C198.515 113.781 198.222 113.042 197.636 112.562C197.071 112.062 196.265 111.812 195.219 111.812C194.047 111.812 192.885 112.177 191.734 112.906C190.583 113.635 189.568 114.646 188.689 115.938C188.053 116.871 187.549 117.909 187.176 119.05Z" fill="white"/>
<path d="M220.46 141.25C218.22 141.25 216.263 141.094 214.589 140.781C213.355 140.548 212.18 140.199 211.062 139.734C210.364 139.443 209.943 138.744 209.943 137.991V134.921C209.943 133.384 211.627 132.403 213.063 132.967C213.63 133.19 214.201 133.388 214.777 133.562C216.452 134.042 218.178 134.281 219.957 134.281C220.941 134.281 221.862 134.146 222.72 133.875C223.599 133.604 224.311 133.188 224.855 132.625C225.399 132.062 225.671 131.354 225.671 130.5C225.671 129.917 225.535 129.396 225.263 128.938C224.991 128.479 224.468 127.979 223.693 127.438C222.94 126.875 221.841 126.198 220.397 125.406C218.953 124.594 217.718 123.76 216.692 122.906C215.688 122.052 214.913 121.083 214.369 120C213.846 118.917 213.584 117.646 213.584 116.188C213.584 113.771 214.118 111.74 215.185 110.094C216.253 108.427 217.781 107.167 219.769 106.312C221.778 105.458 224.175 105.031 226.958 105.031C228.988 105.031 230.945 105.26 232.829 105.719C234.161 106.043 235.471 106.518 236.761 107.144C237.686 107.593 238.027 108.707 237.597 109.637L236.191 112.677C235.688 113.764 234.347 114.164 233.259 113.654C232.623 113.355 231.966 113.085 231.291 112.844C229.909 112.344 228.528 112.094 227.147 112.094C226.121 112.094 225.2 112.333 224.384 112.812C223.568 113.292 223.16 114.031 223.16 115.031C223.16 115.573 223.306 116.073 223.599 116.531C223.892 116.969 224.384 117.417 225.075 117.875C225.786 118.333 226.738 118.875 227.931 119.5C229.355 120.229 230.61 121.042 231.699 121.938C232.808 122.812 233.677 123.833 234.304 125C234.932 126.146 235.246 127.51 235.246 129.094C235.246 131.76 234.639 134 233.425 135.812C232.211 137.604 230.495 138.958 228.277 139.875C226.079 140.792 223.473 141.25 220.46 141.25Z" fill="white"/>
<path d="M97.2505 204.625C96.3663 204.625 95.5861 204.05 95.3285 203.208L92.868 195.167C92.6104 194.325 91.8302 193.75 90.946 193.75H77.1897C76.3055 193.75 75.5253 194.325 75.2676 195.167L72.8072 203.208C72.5496 204.05 71.7693 204.625 70.8852 204.625H64.7239C63.3387 204.625 62.369 203.263 62.8283 201.962L77.6152 160.087C77.898 159.286 78.6579 158.75 79.5107 158.75H88.564C89.4159 158.75 90.1752 159.285 90.4587 160.084L105.303 201.96C105.764 203.261 104.794 204.625 103.408 204.625H97.2505ZM87.3802 185.625C88.7351 185.625 89.7016 184.317 89.2984 183.03L86.7834 175C86.5741 174.292 86.2916 173.385 85.9358 172.281C85.6009 171.156 85.2556 170.021 84.8998 168.875V168.875C84.6785 168.104 83.4789 168.102 83.252 168.871C83.2363 168.924 83.2205 168.977 83.2045 169.031C82.8487 170.281 82.5034 171.469 82.1685 172.594C81.8336 173.719 81.5929 174.521 81.4464 175L78.9536 183.035C78.5545 184.321 79.5207 185.625 80.8734 185.625H87.3802Z" fill="white"/>
<path d="M130.829 169.031C134.785 169.031 137.977 170.562 140.405 173.625C142.853 176.688 144.078 181.177 144.078 187.094C144.078 191.052 143.502 194.385 142.351 197.094C141.2 199.781 139.609 201.812 137.579 203.188C135.549 204.562 133.215 205.25 130.578 205.25C128.883 205.25 127.428 205.042 126.214 204.625C125.001 204.188 123.965 203.635 123.106 202.969C122.289 202.314 121.576 201.621 120.967 200.89C120.91 200.821 120.826 200.781 120.736 200.781V200.781C120.549 200.781 120.409 200.951 120.443 201.134C120.577 201.855 120.68 202.592 120.752 203.344C120.836 204.219 120.877 205.073 120.877 205.906V218C120.877 219.105 119.978 220 118.868 220H113.311C112.202 220 111.302 219.105 111.302 218V171.688C111.302 170.583 112.202 169.688 113.311 169.688H117.588C118.478 169.688 119.261 170.27 119.514 171.119L120.365 173.974C120.408 174.119 120.542 174.219 120.694 174.219V174.219C120.809 174.219 120.915 174.162 120.98 174.068C121.588 173.188 122.318 172.374 123.169 171.625C124.069 170.833 125.147 170.208 126.403 169.75C127.68 169.271 129.155 169.031 130.829 169.031ZM127.753 176.656C126.078 176.656 124.749 177 123.766 177.688C122.782 178.375 122.06 179.406 121.6 180.781C121.16 182.156 120.919 183.896 120.877 186V187.031C120.877 189.281 121.087 191.188 121.505 192.75C121.945 194.312 122.667 195.5 123.672 196.312C124.697 197.125 126.099 197.531 127.878 197.531C129.343 197.531 130.547 197.125 131.489 196.312C132.43 195.5 133.132 194.312 133.592 192.75C134.073 191.167 134.314 189.24 134.314 186.969C134.314 183.552 133.78 180.979 132.713 179.25C131.646 177.521 129.992 176.656 127.753 176.656Z" fill="white"/>
<path d="M171.516 169.031C175.472 169.031 178.664 170.562 181.091 173.625C183.54 176.688 184.765 181.177 184.765 187.094C184.765 191.052 184.189 194.385 183.038 197.094C181.887 199.781 180.296 201.812 178.266 203.188C176.236 204.562 173.902 205.25 171.265 205.25C169.57 205.25 168.115 205.042 166.901 204.625C165.687 204.188 164.651 203.635 163.793 202.969C162.976 202.314 162.262 201.621 161.654 200.89C161.597 200.821 161.512 200.781 161.423 200.781V200.781C161.236 200.781 161.096 200.951 161.13 201.134C161.264 201.855 161.367 202.592 161.439 203.344C161.522 204.219 161.564 205.073 161.564 205.906V218C161.564 219.105 160.665 220 159.555 220H153.998C152.889 220 151.989 219.105 151.989 218V171.688C151.989 170.583 152.889 169.688 153.998 169.688H158.275C159.165 169.688 159.948 170.27 160.201 171.119L161.052 173.974C161.095 174.119 161.229 174.219 161.381 174.219V174.219C161.495 174.219 161.602 174.162 161.667 174.068C162.275 173.188 163.005 172.374 163.856 171.625C164.756 170.833 165.834 170.208 167.09 169.75C168.366 169.271 169.842 169.031 171.516 169.031ZM168.44 176.656C166.765 176.656 165.436 177 164.453 177.688C163.469 178.375 162.747 179.406 162.286 180.781C161.847 182.156 161.606 183.896 161.564 186V187.031C161.564 189.281 161.774 191.188 162.192 192.75C162.632 194.312 163.354 195.5 164.358 196.312C165.384 197.125 166.786 197.531 168.565 197.531C170.03 197.531 171.234 197.125 172.175 196.312C173.117 195.5 173.818 194.312 174.279 192.75C174.76 191.167 175.001 189.24 175.001 186.969C175.001 183.552 174.467 180.979 173.4 179.25C172.332 177.521 170.679 176.656 168.44 176.656Z" fill="white"/>
<defs>
<filter id="filter0_f_77_4" x="0" y="17" width="249.323" height="213.2" filterUnits="userSpaceOnUse" color-interpolation-filters="sRGB">
<feFlood flood-opacity="0" result="BackgroundImageFix"/>
<feBlend mode="normal" in="SourceGraphic" in2="BackgroundImageFix" result="shape"/>
<feGaussianBlur stdDeviation="0.5" result="effect1_foregroundBlur_77_4"/>
</filter>
</defs>
</svg>
