<svg viewBox="0 0 250 248" fill="none" xmlns="http://www.w3.org/2000/svg"><g opacity=".2" filter="url(#a)" fill="currentColor"><path d="M85.921 69.488a2 2 0 0 1-2 2h-6.656a2 2 0 0 1-2-2V32.1a2 2 0 0 0-2-2h-9.647a2 2 0 0 1-2-2v-4.869a2 2 0 0 1 2-2h33.95a2 2 0 0 1 2 2V28.1a2 2 0 0 1-2 2h-9.647a2 2 0 0 0-2 2zM114.962 18a2 2 0 0 1 2 2v8.897q0 2.853-.206 5.431a174 174 0 0 1-.242 3.28.334.334 0 0 0 .615.208q1.206-1.887 2.824-3.075a12 12 0 0 1 3.781-1.822q2.063-.585 4.434-.585 4.16 0 7.253 1.478 3.094 1.445 4.813 4.572 1.719 3.094 1.719 8.044v23.06a2 2 0 0 1-2 2h-6.485a2 2 0 0 1-2-2V49.04q0-4.125-1.512-6.222t-4.675-2.097-4.985 1.478q-1.821 1.444-2.578 4.297-.756 2.818-.756 6.91v16.08a2 2 0 0 1-2 2h-6.484a2 2 0 0 1-2-2V20a2 2 0 0 1 2-2zm53.631 14.334q5.329 0 9.178 2.063 3.85 2.028 5.947 5.912t2.097 9.488v3.087a2 2 0 0 1-2 2H163.11c-1.135 0-2.063.95-1.856 2.066q.556 2.994 2.424 4.912 2.51 2.51 6.943 2.51 3.678 0 6.738-.756a32 32 0 0 0 3.392-1.052c1.373-.509 2.898.463 2.898 1.927v3.726c0 .76-.429 1.462-1.127 1.765a25 25 0 0 1-4.854 1.54q-3.094.653-7.528.653-5.774 0-10.244-2.131-4.434-2.132-6.978-6.497-2.51-4.365-2.509-11 0-6.738 2.269-11.206 2.303-4.503 6.393-6.738 4.09-2.269 9.522-2.269m.069 7.46q-3.06 0-5.088 1.96-1.446 1.421-2.006 4.021c-.245 1.137.694 2.131 1.856 2.131h10.53c1.116 0 2.041-.92 1.835-2.018a9.3 9.3 0 0 0-.665-2.141q-.79-1.822-2.406-2.888-1.581-1.065-4.056-1.065M3 141.888a2 2 0 0 1-1.956-2.414l9.776-46.256a2 2 0 0 1 1.957-1.587h10.72q7.562 0 11.928 3.266 4.4 3.23 4.4 10.519 0 3.987-1.444 6.978t-3.953 5.018a17.7 17.7 0 0 1-3.692 2.326c-1.047.493-1.6 1.707-1.152 2.773l6.977 16.602a2 2 0 0 1-1.843 2.775h-7.01a2 2 0 0 1-1.875-1.308l-6.151-16.669a2 2 0 0 0-1.876-1.308h-1.077a2 2 0 0 0-1.956 1.585l-3.419 16.115a2 2 0 0 1-1.956 1.585zm14.445-30.363a2 2 0 0 0 1.956 2.416h.211q2.235 0 3.988-.482 1.787-.515 3.024-1.478a6.2 6.2 0 0 0 1.857-2.475q.653-1.512.653-3.506 0-2.819-1.65-4.228-1.65-1.41-5.122-1.409h-.924a2 2 0 0 0-1.957 1.583zm42.455 31.05q-4.504 0-7.941-1.616-3.404-1.65-5.328-4.95t-1.925-8.284q0-4.812 1.375-9.281 1.374-4.503 4.09-8.044a20.2 20.2 0 0 1 6.738-5.603q4.022-2.063 9.281-2.063 6.462 0 9.66 2.957 3.23 2.922 3.23 7.528 0 3.025-1.374 5.5-1.341 2.475-4.09 4.262-2.75 1.753-6.91 2.716-4.16.928-9.763.928h-1.028a.804.804 0 0 0-.794.722v.687q0 3.094 1.788 4.916 1.787 1.822 5.053 1.822 3.025 0 5.5-.688a29 29 0 0 0 2.957-1.012c1.362-.54 2.887.427 2.887 1.892v3.406c0 .764-.433 1.467-1.132 1.775a29.7 29.7 0 0 1-5.021 1.708q-3.129.722-7.254.722m-3.17-24.42c-.245.755.348 1.492 1.141 1.492q3.988 0 6.463-.86 2.509-.859 3.644-2.268 1.168-1.41 1.168-3.06t-.962-2.44q-.928-.825-2.647-.825-1.925 0-3.816 1.203t-3.334 3.334a13.5 13.5 0 0 0-1.657 3.424m41.533 24.42q-3.987 0-7.253-1.409-3.231-1.444-5.156-4.538-1.89-3.127-1.891-8.181 0-4.16.86-7.975.858-3.816 2.543-7.047t4.16-5.603a18.1 18.1 0 0 1 5.671-3.747q3.197-1.341 7.116-1.341 3.438 0 6.153.654 1.794.426 3.427 1.071c.973.385 1.394 1.5 1.004 2.471l-1.71 4.257c-.418 1.04-1.607 1.528-2.656 1.134a44 44 0 0 0-1.749-.615q-1.788-.584-4.057-.584-2.44 0-4.365 1.409-1.89 1.41-3.231 3.781-1.307 2.373-1.994 5.329a26 26 0 0 0-.688 5.947q0 2.165.688 3.643.722 1.478 2.028 2.235 1.341.756 3.197.756 2.612 0 4.847-.791a39 39 0 0 0 1.653-.654c1.375-.58 2.953.391 2.953 1.883v3.994c0 .742-.407 1.429-1.08 1.74a24.3 24.3 0 0 1-4.111 1.459q-2.784.722-6.359.722m20.378-.687a2 2 0 0 1-1.957-2.415l7.299-34.432a2 2 0 0 1 1.957-1.585h6.258a2 2 0 0 1 1.956 2.415l-7.299 34.431a2 2 0 0 1-1.956 1.586zm12.519-43.21q-2.2 0-3.713-.962-1.478-.962-1.478-3.266 0-1.994.722-3.334a4.9 4.9 0 0 1 2.166-2.028q1.409-.688 3.368-.688 2.063 0 3.575.894 1.548.894 1.547 3.231 0 2.75-1.512 4.469-1.513 1.684-4.675 1.684m4.772 60.122a2 2 0 0 1-1.956-2.416l10.907-51.343a2 2 0 0 1 1.956-1.585h4.077a2 2 0 0 1 1.99 2.199l-.344 3.434a.192.192 0 0 0 .346.132 24 24 0 0 1 2.727-3.083 13 13 0 0 1 3.609-2.441q2.028-.963 4.503-.963 2.785 0 5.26 1.375t4.022 4.469q1.546 3.06 1.546 8.181 0 3.747-.825 7.46a33.2 33.2 0 0 1-2.337 7.012q-1.512 3.3-3.713 5.878-2.165 2.544-4.915 4.022-2.75 1.444-6.016 1.444-2.337 0-3.953-.722a8.4 8.4 0 0 1-2.75-2.028 19.3 19.3 0 0 1-1.975-2.763.183.183 0 0 0-.341.08 72 72 0 0 1-.537 4.952 70 70 0 0 1-.928 5.019l-2.139 10.101a2 2 0 0 1-1.957 1.586zm19.084-24.578q1.512 0 2.888-.963 1.374-.996 2.509-2.681 1.134-1.718 1.959-3.884.825-2.2 1.272-4.641a27 27 0 0 0 .447-4.881q0-3.025-1.134-4.538-1.101-1.512-3.369-1.512-1.65 0-3.025.859-1.34.86-2.372 2.303a16.5 16.5 0 0 0-1.787 3.266 25 25 0 0 0-1.238 3.713 34 34 0 0 0-.722 3.712 28 28 0 0 0-.206 3.197q0 2.715 1.272 4.4 1.306 1.65 3.506 1.65m41.009 8.353q-4.502 0-7.94-1.616-3.404-1.65-5.328-4.95t-1.925-8.284q0-4.812 1.375-9.281 1.374-4.503 4.09-8.044a20.2 20.2 0 0 1 6.738-5.603q4.022-2.063 9.281-2.063 6.462 0 9.659 2.957 3.232 2.922 3.232 7.528 0 3.025-1.375 5.5-1.341 2.475-4.091 4.262-2.75 1.753-6.909 2.716-4.16.928-9.763.928h-1.028a.805.805 0 0 0-.794.722v.687q0 3.094 1.788 4.916t5.053 1.822q3.025 0 5.5-.688a29 29 0 0 0 2.957-1.012c1.362-.54 2.887.427 2.887 1.892v3.406c0 .764-.433 1.467-1.133 1.775a29.6 29.6 0 0 1-5.02 1.708q-3.129.722-7.254.722m-3.169-24.42c-.245.755.348 1.492 1.141 1.492q3.988 0 6.463-.86 2.509-.859 3.644-2.268 1.168-1.41 1.168-3.06t-.962-2.44q-.928-.825-2.647-.825-1.924 0-3.816 1.203-1.89 1.203-3.334 3.334a13.6 13.6 0 0 0-1.657 3.424m36.444 24.42q-3.677 0-6.428-.516a19.2 19.2 0 0 1-3.974-1.2c-.693-.295-1.113-.993-1.113-1.746v-3.845c0-1.537 1.675-2.517 3.097-1.933q1.087.447 2.197.784 2.75.79 5.671.79a10 10 0 0 0 3.025-.446q1.444-.447 2.338-1.375t.894-2.338q0-.963-.447-1.719t-1.719-1.65q-1.237-.927-3.609-2.234-2.373-1.341-4.057-2.75-1.65-1.41-2.543-3.197-.86-1.788-.86-4.194 0-3.987 1.753-6.703 1.754-2.75 5.019-4.159 3.3-1.41 7.872-1.41 3.335 0 6.428.757 2.27.555 4.468 1.647c.917.456 1.257 1.569.828 2.499l-1.709 3.712c-.5 1.087-1.835 1.488-2.913.967a24 24 0 0 0-2.358-.988q-2.269-.825-4.538-.825-1.684 0-3.025.791-1.34.79-1.34 2.44 0 .894.481 1.65.481.722 1.616 1.479 1.168.756 3.128 1.787 2.337 1.203 4.125 2.681 1.821 1.444 2.853 3.369 1.03 1.89 1.031 4.503 0 4.4-1.994 7.391-1.994 2.956-5.637 4.468-3.61 1.513-8.56 1.513M94.244 212.288a2 2 0 0 1-1.914-1.418l-2.78-9.128a2 2 0 0 0-1.913-1.417h-15.36a2 2 0 0 0-1.912 1.417l-2.78 9.128a2 2 0 0 1-1.914 1.418h-7.177a2 2 0 0 1-1.886-2.664l16.331-46.462a2 2 0 0 1 1.887-1.337h10.196a2 2 0 0 1 1.886 1.335l16.395 46.462a2 2 0 0 1-1.886 2.666zm-10.388-20.901a2 2 0 0 0 1.91-2.595L82.93 179.7q-.345-1.168-.928-2.991a335 335 0 0 0-1.135-3.746c-.242-.848-1.556-.851-1.804-.005l-.052.176a420 420 0 0 1-1.925 6.566l-2.81 9.097a2 2 0 0 0 1.912 2.59zm47.303-18.253q6.497 0 10.484 5.054 4.022 5.052 4.022 14.815 0 6.531-1.891 11-1.89 4.435-5.225 6.703-3.334 2.27-7.665 2.269-2.784 0-4.778-.687-1.994-.723-3.403-1.822a16.3 16.3 0 0 1-2.343-2.287.33.33 0 0 0-.253-.12.328.328 0 0 0-.32.389q.22 1.19.337 2.43.138 1.444.138 2.819V227.2a2 2 0 0 1-2 2h-6.484a2 2 0 0 1-2-2v-51.344a2 2 0 0 1 2-2h5.032a2 2 0 0 1 1.917 1.432l.974 3.284a.376.376 0 0 0 .674.102 14.7 14.7 0 0 1 2.396-2.686q1.479-1.307 3.541-2.063 2.097-.79 4.847-.791m-3.369 8.388q-2.75 0-4.366 1.134-1.615 1.135-2.371 3.403-.723 2.269-.791 5.741v1.134q0 3.713.687 6.291.723 2.578 2.372 3.919 1.685 1.34 4.607 1.34 2.405 0 3.953-1.34 1.547-1.34 2.303-3.919.79-2.612.79-6.359 0-5.638-1.753-8.491t-5.431-2.853m47.919-8.388q6.497 0 10.484 5.054 4.022 5.052 4.022 14.815 0 6.531-1.891 11-1.89 4.435-5.225 6.703-3.334 2.27-7.665 2.269-2.784 0-4.778-.687-1.994-.723-3.403-1.822a16.3 16.3 0 0 1-2.343-2.287.33.33 0 0 0-.253-.12.328.328 0 0 0-.32.389q.22 1.19.337 2.43.138 1.444.138 2.819V227.2a2 2 0 0 1-2 2h-6.484a2 2 0 0 1-2-2v-51.344a2 2 0 0 1 2-2h5.032a2 2 0 0 1 1.917 1.432l.974 3.284a.376.376 0 0 0 .674.102 14.7 14.7 0 0 1 2.396-2.686q1.479-1.307 3.541-2.063 2.097-.79 4.847-.791m-3.369 8.388q-2.75 0-4.366 1.134-1.615 1.135-2.371 3.403-.722 2.269-.791 5.741v1.134q0 3.713.687 6.291.722 2.578 2.372 3.919 1.685 1.34 4.607 1.34 2.406 0 3.953-1.34t2.303-3.919q.79-2.612.79-6.359 0-5.638-1.753-8.491t-5.431-2.853"/><path d="M91.396 79.763a2 2 0 0 1-2 2h-4.718a2 2 0 0 1-2-2V49.9a2 2 0 0 0-2-2h-7.166a2 2 0 0 1-2-2v-3.256a2 2 0 0 1 2-2h27.05a2 2 0 0 1 2 2V45.9a2 2 0 0 1-2 2h-7.166a2 2 0 0 0-2 2zM114.793 38a2 2 0 0 1 2 2v6.916q0 2.334-.169 4.443-.119 1.785-.197 2.684a.273.273 0 0 0 .503.17q.987-1.544 2.31-2.516a9.9 9.9 0 0 1 3.094-1.49q1.687-.48 3.628-.479 3.403 0 5.934 1.21 2.532 1.18 3.938 3.74 1.406 2.531 1.406 6.581v18.504a2 2 0 0 1-2 2h-4.578a2 2 0 0 1-2-2V63.397q0-3.375-1.238-5.09-1.237-1.717-3.825-1.716-2.587 0-4.078 1.209-1.49 1.182-2.109 3.516-.62 2.305-.619 5.653v12.794a2 2 0 0 1-2 2h-4.578a2 2 0 0 1-2-2V40a2 2 0 0 1 2-2zm44.244 11.728q4.359 0 7.509 1.688 3.15 1.659 4.866 4.837t1.716 7.763v2.162a2 2 0 0 1-2 2h-16.2c-1.134 0-2.069.953-1.82 2.06q.497 2.2 1.907 3.65 2.054 2.053 5.681 2.053 3.01 0 5.513-.62a25 25 0 0 0 2.237-.666c1.383-.48 2.91.49 2.91 1.955v2.25c0 .761-.429 1.464-1.13 1.76q-1.817.765-3.764 1.17-2.532.535-6.159.535-4.725 0-8.382-1.744-3.628-1.743-5.709-5.315-2.053-3.573-2.053-9 0-5.513 1.856-9.17 1.884-3.683 5.231-5.512 3.347-1.856 7.791-1.856m.056 6.103q-2.503 0-4.162 1.603-1.077 1.057-1.553 2.91c-.289 1.126.659 2.125 1.821 2.125h7.855c1.116 0 2.048-.925 1.795-2.012a7.6 7.6 0 0 0-.468-1.391 5.3 5.3 0 0 0-1.969-2.363q-1.294-.872-3.319-.872M24 139.363a2 2 0 0 1-1.956-2.414l7.845-37.119a2 2 0 0 1 1.957-1.586h8.475q6.188 0 9.76 2.672 3.6 2.643 3.6 8.606 0 3.263-1.181 5.709-1.182 2.447-3.235 4.107a14.5 14.5 0 0 1-2.671 1.732c-1.034.52-1.59 1.731-1.141 2.797l5.346 12.721a2 2 0 0 1-1.844 2.775h-4.934a2 2 0 0 1-1.876-1.308l-4.857-13.163a2 2 0 0 0-1.876-1.308h-.333a2 2 0 0 0-1.956 1.585l-2.675 12.609a2 2 0 0 1-1.956 1.585zm11.406-25.012a1.776 1.776 0 0 0 1.737 2.146q1.829 0 3.263-.394 1.462-.422 2.475-1.209a5.1 5.1 0 0 0 1.519-2.025q.534-1.237.534-2.869 0-2.307-1.35-3.459t-4.19-1.153h-.463a2 2 0 0 0-1.956 1.583zm34.7 25.574q-3.684 0-6.497-1.322-2.785-1.35-4.36-4.05t-1.575-6.778q0-3.937 1.126-7.594 1.125-3.684 3.346-6.581a16.5 16.5 0 0 1 5.513-4.584q3.29-1.688 7.594-1.688 5.287 0 7.903 2.419 2.643 2.391 2.643 6.159 0 2.475-1.125 4.5-1.096 2.025-3.346 3.488-2.25 1.434-5.654 2.222-3.402.759-7.987.759h-.841a.66.66 0 0 0-.65.591v.562q0 2.531 1.463 4.022 1.462 1.491 4.134 1.491 2.475 0 4.5-.563a23 23 0 0 0 1.886-.622c1.372-.515 2.895.449 2.895 1.914v1.988c0 .764-.432 1.467-1.134 1.77a24 24 0 0 1-3.9 1.306q-2.559.591-5.934.591m-2.593-19.98c-.201.617.284 1.221.933 1.221q3.263 0 5.288-.703 2.053-.703 2.981-1.857.957-1.152.956-2.503 0-1.35-.787-1.997-.759-.675-2.166-.675-1.575 0-3.122.985-1.546.984-2.728 2.728-.854 1.26-1.355 2.801m33.98 19.98q-3.262 0-5.934-1.153-2.644-1.181-4.219-3.713-1.547-2.559-1.547-6.693 0-3.404.703-6.525.704-3.122 2.082-5.766t3.403-4.584a14.8 14.8 0 0 1 4.64-3.066q2.616-1.097 5.822-1.097 2.812 0 5.035.535 1.296.308 2.489.755c.979.368 1.4 1.485 1.01 2.455l-1.135 2.826c-.418 1.04-1.607 1.528-2.66 1.144a34 34 0 0 0-1.083-.374q-1.463-.478-3.318-.478-1.998 0-3.572 1.153-1.547 1.153-2.644 3.094-1.068 1.94-1.631 4.359a21.2 21.2 0 0 0-.563 4.866q0 1.772.563 2.981.591 1.209 1.659 1.828 1.096.619 2.616.619 2.138 0 3.965-.647.4-.148.806-.31c1.385-.556 2.963.416 2.963 1.907v2.457c0 .741-.406 1.43-1.083 1.733a20 20 0 0 1-3.164 1.103q-2.278.591-5.203.591m17.122-.562a2 2 0 0 1-1.957-2.415l5.818-27.444a2 2 0 0 1 1.956-1.585h4.377a2 2 0 0 1 1.957 2.415l-5.818 27.443a2 2 0 0 1-1.956 1.586zm9.794-35.354q-1.8 0-3.038-.787-1.209-.788-1.209-2.672 0-1.631.591-2.728a4 4 0 0 1 1.771-1.66q1.153-.562 2.757-.562 1.688 0 2.925.731 1.265.732 1.265 2.644 0 2.25-1.237 3.656-1.237 1.378-3.825 1.378m4.354 49.191a2 2 0 0 1-1.957-2.416l8.769-41.281a2 2 0 0 1 1.957-1.584h2.639a2 2 0 0 1 1.99 2.199l-.241 2.41a.157.157 0 0 0 .283.108 19.4 19.4 0 0 1 2.231-2.523 10.6 10.6 0 0 1 2.953-1.997q1.659-.788 3.684-.788 2.278 0 4.303 1.125t3.291 3.656q1.266 2.503 1.266 6.694 0 3.066-.675 6.103a27.2 27.2 0 0 1-1.913 5.738q-1.237 2.7-3.037 4.809-1.772 2.082-4.022 3.291-2.25 1.18-4.922 1.181-1.912 0-3.234-.591a6.9 6.9 0 0 1-2.25-1.659 15.6 15.6 0 0 1-1.616-2.26.15.15 0 0 0-.279.064 58 58 0 0 1-.44 4.052 57 57 0 0 1-.759 4.107l-1.689 7.976a2 2 0 0 1-1.957 1.586zm15.165-20.109q1.237 0 2.362-.788 1.125-.816 2.053-2.194a16.2 16.2 0 0 0 1.603-3.178q.675-1.8 1.041-3.797t.366-3.993q0-2.475-.929-3.713-.9-1.237-2.756-1.237-1.35 0-2.475.703-1.097.703-1.94 1.884a13.5 13.5 0 0 0-1.463 2.672q-.619 1.463-1.012 3.038a28 28 0 0 0-.591 3.037 23 23 0 0 0-.169 2.616q0 2.222 1.041 3.6 1.069 1.35 2.869 1.35m33.553 6.834q-3.685 0-6.497-1.322-2.785-1.35-4.36-4.05t-1.575-6.778q0-3.937 1.125-7.594 1.125-3.684 3.347-6.581a16.5 16.5 0 0 1 5.513-4.584q3.29-1.688 7.594-1.688 5.287 0 7.903 2.419 2.643 2.391 2.643 6.159 0 2.475-1.125 4.5-1.096 2.025-3.346 3.488-2.25 1.434-5.654 2.222-3.402.759-7.987.759h-.841a.66.66 0 0 0-.65.591v.562q0 2.531 1.463 4.022t4.134 1.491q2.475 0 4.5-.563a23 23 0 0 0 1.886-.622c1.372-.515 2.895.449 2.895 1.914v1.988c0 .764-.432 1.467-1.134 1.77a24 24 0 0 1-3.9 1.306q-2.559.591-5.934.591m-2.593-19.98c-.201.617.284 1.221.933 1.221q3.263 0 5.288-.703 2.053-.703 2.981-1.857.956-1.152.956-2.503 0-1.35-.787-1.997-.759-.675-2.166-.675-1.575 0-3.122.985-1.546.984-2.728 2.728a11 11 0 0 0-1.355 2.801m29.818 19.98q-3.01 0-5.26-.422a15.8 15.8 0 0 1-3.045-.896c-.698-.285-1.117-.985-1.117-1.738v-2.295c0-1.537 1.679-2.519 3.118-1.979q.602.226 1.213.411 2.25.647 4.641.647a8.2 8.2 0 0 0 2.475-.365q1.181-.366 1.912-1.125.731-.76.731-1.913 0-.788-.365-1.406-.366-.62-1.406-1.35-1.013-.76-2.954-1.828-1.94-1.098-3.318-2.25-1.35-1.154-2.082-2.616-.703-1.463-.703-3.431 0-3.262 1.435-5.485 1.434-2.25 4.106-3.403 2.7-1.152 6.441-1.153 2.727 0 5.259.619 1.706.417 3.36 1.204c.925.44 1.264 1.556.836 2.486l-1.09 2.369c-.501 1.086-1.836 1.485-2.924.988a20 20 0 0 0-1.56-.635 10.8 10.8 0 0 0-3.713-.675q-1.377 0-2.475.647-1.097.647-1.097 1.997 0 .732.394 1.35.394.59 1.322 1.21.957.619 2.559 1.462 1.913.985 3.375 2.194 1.49 1.18 2.335 2.756.844 1.546.844 3.684 0 3.6-1.632 6.047-1.631 2.42-4.612 3.657-2.953 1.237-7.003 1.237M98.475 196.963a2 2 0 0 1-1.913-1.418l-2.118-6.953a2 2 0 0 0-1.914-1.417H80.503a2 2 0 0 0-1.913 1.417l-2.118 6.953a2 2 0 0 1-1.913 1.418h-5.09a2 2 0 0 1-1.886-2.664l13.106-37.287a2 2 0 0 1 1.887-1.337h7.827a2 2 0 0 1 1.886 1.335l13.157 37.287a2 2 0 0 1-1.886 2.666zm-9.263-17.1a2 2 0 0 0 1.91-2.596L88.95 170.3q-.282-.956-.76-2.447-.45-1.518-.928-3.065c-.198-.694-1.273-.697-1.476-.004l-.043.144a333 333 0 0 1-1.575 5.372l-2.153 6.972a2 2 0 0 0 1.91 2.591zm39.197-14.935q5.316 0 8.578 4.134 3.291 4.135 3.291 12.122 0 5.345-1.547 9-1.548 3.628-4.275 5.485-2.729 1.856-6.272 1.856-2.278 0-3.91-.562-1.63-.591-2.784-1.491a13.4 13.4 0 0 1-1.917-1.871.27.27 0 0 0-.206-.098.27.27 0 0 0-.263.318q.18.974.277 1.988.112 1.182.112 2.307V208.8a2 2 0 0 1-2 2h-4.578a2 2 0 0 1-2-2v-41.281a2 2 0 0 1 2-2h3.482a2 2 0 0 1 1.918 1.431l.719 2.427a.309.309 0 0 0 .551.084 12 12 0 0 1 1.961-2.198q1.21-1.069 2.897-1.688 1.716-.647 3.966-.647m-2.756 6.863q-2.25 0-3.572.928-1.322.929-1.941 2.784-.59 1.856-.647 4.697v.928q0 3.038.563 5.147.59 2.11 1.94 3.206 1.378 1.098 3.769 1.097 1.97 0 3.234-1.097 1.266-1.097 1.885-3.206.647-2.137.647-5.203 0-4.613-1.435-6.947-1.434-2.334-4.443-2.334m39.206-6.863q5.316 0 8.578 4.134 3.291 4.135 3.291 12.122 0 5.345-1.547 9-1.548 3.628-4.275 5.485-2.729 1.856-6.272 1.856-2.278 0-3.91-.562-1.63-.591-2.784-1.491a13.4 13.4 0 0 1-1.917-1.871.27.27 0 0 0-.206-.098.27.27 0 0 0-.263.318q.18.974.277 1.988.112 1.182.112 2.307V208.8a2 2 0 0 1-2 2h-4.578a2 2 0 0 1-2-2v-41.281a2 2 0 0 1 2-2h3.482a2 2 0 0 1 1.918 1.431l.719 2.427a.309.309 0 0 0 .551.084 12 12 0 0 1 1.961-2.198q1.21-1.069 2.897-1.688 1.716-.647 3.966-.647m-2.756 6.863q-2.25 0-3.572.928-1.322.929-1.941 2.784-.59 1.856-.647 4.697v.928q0 3.038.563 5.147.59 2.11 1.94 3.206 1.378 1.098 3.769 1.097 1.97 0 3.234-1.097 1.266-1.097 1.885-3.206.647-2.137.647-5.203 0-4.613-1.435-6.947-1.434-2.334-4.443-2.334"/></g><path d="M89.515 74.625c0 1.105-.9 2-2.01 2h-5.713c-1.11 0-2.01-.895-2.01-2V41c0-1.105-.899-2-2.009-2h-8.445a2.004 2.004 0 0 1-2.009-2v-4.062c0-1.105.9-2 2.01-2h30.64c1.11 0 2.009.895 2.009 2V37c0 1.105-.899 2-2.009 2h-8.445c-1.11 0-2.01.895-2.01 2zM115.854 28c1.11 0 2.01.895 2.01 2v7.906q0 2.594-.189 4.938a158 158 0 0 1-.22 2.981.304.304 0 0 0 .303.331.3.3 0 0 0 .258-.142q1.101-1.715 2.579-2.795a11 11 0 0 1 3.453-1.657q1.884-.53 4.05-.53 3.8 0 6.624 1.343 2.826 1.312 4.395 4.156 1.57 2.813 1.57 7.313v20.781c0 1.105-.899 2-2.009 2h-5.557a2.004 2.004 0 0 1-2.009-2V56.219q0-3.75-1.381-5.657-1.382-1.905-4.27-1.906T120.909 50q-1.663 1.313-2.355 3.906-.69 2.563-.69 6.282v14.437c0 1.105-.9 2-2.01 2h-5.556c-1.11 0-2.01-.895-2.01-2V30c0-1.105.9-2 2.01-2zm49.164 13.031q4.866 0 8.382 1.875 3.516 1.844 5.431 5.375 1.915 3.532 1.915 8.625v2.625c0 1.105-.9 2-2.009 2H160.2c-1.141 0-2.076.951-1.849 2.063q.531 2.597 2.177 4.281 2.292 2.28 6.342 2.281 3.358 0 6.153-.687 1.395-.343 2.829-.858c1.383-.496 2.916.475 2.916 1.94v2.987c0 .761-.431 1.464-1.134 1.763a23 23 0 0 1-4.328 1.355q-2.826.594-6.876.594-5.274 0-9.355-1.937-4.05-1.937-6.373-5.907-2.292-3.969-2.292-10 0-6.125 2.072-10.187 2.103-4.094 5.839-6.125 3.736-2.063 8.697-2.063m.062 6.782q-2.793 0-4.646 1.78-1.268 1.242-1.79 3.466c-.265 1.132.682 2.129 1.85 2.129h9.234c1.122 0 2.054-.923 1.826-2.016a8.3 8.3 0 0 0-.572-1.766 5.87 5.87 0 0 0-2.197-2.625q-1.444-.969-3.705-.968M14.01 140.625a2.003 2.003 0 0 1-1.966-2.414l8.852-41.687a2.01 2.01 0 0 1 1.965-1.587h9.642q6.907 0 10.894 2.97 4.018 2.937 4.018 9.562 0 3.624-1.318 6.343a13.1 13.1 0 0 1-3.61 4.563 16.2 16.2 0 0 1-3.196 2.03c-1.046.505-1.603 1.718-1.153 2.784l6.19 14.661c.557 1.318-.415 2.775-1.852 2.775h-5.998a2.01 2.01 0 0 1-1.885-1.308l-5.53-14.916a2.01 2.01 0 0 0-1.884-1.307h-.708c-.95 0-1.769.661-1.966 1.585l-3.06 14.361a2.01 2.01 0 0 1-1.966 1.585zm13.006-27.79a1.976 1.976 0 0 0 1.94 2.384q2.04 0 3.641-.438 1.633-.468 2.763-1.343a5.65 5.65 0 0 0 1.695-2.25q.597-1.376.597-3.188 0-2.562-1.507-3.844-1.507-1.281-4.678-1.281h-.696c-.949 0-1.768.66-1.966 1.584zM65.75 141.25q-4.113 0-7.253-1.469-3.108-1.5-4.866-4.5t-1.758-7.531q0-4.375 1.256-8.438 1.255-4.093 3.736-7.312a18.4 18.4 0 0 1 6.153-5.094q3.673-1.875 8.477-1.875 5.901 0 8.821 2.688 2.951 2.656 2.951 6.843 0 2.75-1.255 5-1.225 2.25-3.736 3.876-2.512 1.593-6.31 2.468-3.8.844-8.916.844h-.94a.733.733 0 0 0-.724.656v.625q0 2.813 1.632 4.469 1.633 1.656 4.615 1.656 2.763 0 5.023-.625a27 27 0 0 0 2.433-.816c1.373-.529 2.904.437 2.904 1.902v2.697a1.92 1.92 0 0 1-1.138 1.773 27 27 0 0 1-4.481 1.507q-2.857.656-6.625.656m-2.895-22.2c-.224.686.317 1.356 1.042 1.356q3.642 0 5.902-.781 2.292-.781 3.328-2.063 1.067-1.281 1.067-2.781t-.879-2.219q-.847-.75-2.417-.75-1.758 0-3.485 1.094t-3.045 3.032a12.3 12.3 0 0 0-1.513 3.112m37.931 22.2q-3.642 0-6.624-1.281-2.95-1.312-4.71-4.125-1.726-2.844-1.726-7.438 0-3.781.785-7.25t2.323-6.406 3.799-5.094a16.6 16.6 0 0 1 5.18-3.406q2.92-1.218 6.499-1.219 3.14 0 5.619.594 1.553.367 2.972.913c.981.377 1.403 1.493 1.012 2.463l-1.43 3.542c-.419 1.04-1.614 1.528-2.67 1.139a38 38 0 0 0-1.422-.494q-1.633-.532-3.705-.532-2.229 0-3.987 1.282-1.727 1.281-2.95 3.437-1.194 2.156-1.822 4.844a23.4 23.4 0 0 0-.627 5.406q0 1.97.627 3.313.66 1.343 1.853 2.031 1.224.687 2.919.687 2.386 0 4.427-.718.612-.226 1.236-.481c1.385-.569 2.971.402 2.971 1.894v3.225c0 .741-.409 1.429-1.087 1.737q-1.728.783-3.654 1.281-2.543.656-5.808.656m18.836-.625a2.002 2.002 0 0 1-1.965-2.415l6.588-30.937a2.01 2.01 0 0 1 1.966-1.585h5.342c1.277 0 2.23 1.17 1.965 2.414l-6.588 30.938a2.01 2.01 0 0 1-1.966 1.585zm11.208-39.281q-2.008 0-3.39-.875-1.35-.876-1.35-2.969 0-1.812.659-3.031a4.46 4.46 0 0 1 1.978-1.844q1.287-.625 3.077-.625 1.883 0 3.265.813 1.412.811 1.412 2.937 0 2.5-1.381 4.063-1.381 1.53-4.27 1.531M135.414 156a2.003 2.003 0 0 1-1.966-2.416l9.883-46.312a2.01 2.01 0 0 1 1.966-1.584h3.373a2 2 0 0 1 1.999 2.199l-.293 2.921a.174.174 0 0 0 .174.192.18.18 0 0 0 .142-.071q1.08-1.462 2.49-2.804a11.9 11.9 0 0 1 3.296-2.219q1.853-.875 4.113-.875a9.8 9.8 0 0 1 4.803 1.25q2.261 1.25 3.673 4.063 1.413 2.781 1.413 7.437 0 3.406-.753 6.781a30 30 0 0 1-2.135 6.376q-1.381 3-3.391 5.343-1.977 2.313-4.489 3.657-2.512 1.311-5.494 1.312-2.135 0-3.61-.656a7.7 7.7 0 0 1-2.512-1.844 17.4 17.4 0 0 1-1.803-2.512.168.168 0 0 0-.312.072 64 64 0 0 1-.491 4.502 63 63 0 0 1-.847 4.563l-1.923 9.039a2.01 2.01 0 0 1-1.966 1.586zm17.203-22.344q1.381 0 2.637-.875 1.255-.906 2.292-2.437a18 18 0 0 0 1.789-3.532q.754-2 1.162-4.218t.408-4.438q0-2.75-1.036-4.125-1.004-1.374-3.077-1.375a5.13 5.13 0 0 0-2.762.782q-1.225.78-2.167 2.093a15 15 0 0 0-1.632 2.969 23 23 0 0 0-1.13 3.375 31 31 0 0 0-.659 3.375 25 25 0 0 0-.189 2.906q0 2.469 1.162 4 1.192 1.5 3.202 1.5m37.453 7.594q-4.113 0-7.252-1.469-3.108-1.5-4.866-4.5t-1.758-7.531q0-4.375 1.256-8.438 1.255-4.093 3.736-7.312a18.4 18.4 0 0 1 6.153-5.094q3.673-1.875 8.476-1.875 5.903 0 8.822 2.688 2.95 2.656 2.951 6.843 0 2.75-1.256 5-1.224 2.25-3.736 3.876-2.51 1.593-6.31 2.468-3.798.844-8.916.844h-.939a.734.734 0 0 0-.725.656v.625q0 2.813 1.633 4.469 1.632 1.656 4.615 1.656 2.763 0 5.023-.625a26 26 0 0 0 2.433-.816c1.373-.529 2.904.437 2.904 1.902v2.697a1.92 1.92 0 0 1-1.139 1.773 27 27 0 0 1-4.481 1.507q-2.856.656-6.624.656m-2.894-22.2c-.224.686.317 1.356 1.042 1.356q3.642 0 5.902-.781 2.292-.781 3.328-2.063 1.067-1.281 1.067-2.781t-.879-2.219q-.848-.75-2.417-.75-1.758 0-3.485 1.094t-3.045 3.032a12.3 12.3 0 0 0-1.513 3.112m33.284 22.2q-3.36 0-5.871-.469a17.7 17.7 0 0 1-3.527-1.047c-.698-.291-1.119-.99-1.119-1.743v-3.07c0-1.537 1.684-2.518 3.12-1.954q.85.334 1.714.595 2.512.72 5.18.719 1.476 0 2.763-.406 1.319-.406 2.135-1.25t.816-2.125q0-.875-.408-1.562-.408-.689-1.57-1.5-1.13-.844-3.296-2.032-2.166-1.218-3.705-2.5-1.506-1.281-2.323-2.906-.785-1.625-.785-3.812 0-3.625 1.601-6.094 1.602-2.5 4.584-3.782 3.014-1.281 7.189-1.281 3.045 0 5.871.688 1.998.486 3.932 1.425c.925.449 1.266 1.563.836 2.493l-1.406 3.04c-.503 1.087-1.844 1.487-2.932.977a22 22 0 0 0-1.968-.81 12.1 12.1 0 0 0-4.144-.75q-1.539 0-2.763.718-1.224.72-1.224 2.219 0 .813.439 1.5.44.657 1.476 1.344 1.066.687 2.856 1.625 2.135 1.094 3.768 2.438 1.664 1.311 2.605 3.062.942 1.719.942 4.094 0 4-1.821 6.718-1.821 2.688-5.148 4.063-3.297 1.375-7.817 1.375M97.25 204.625a2.01 2.01 0 0 1-1.921-1.417l-2.461-8.041a2.01 2.01 0 0 0-1.922-1.417H77.19c-.885 0-1.665.575-1.922 1.417l-2.46 8.041a2.01 2.01 0 0 1-1.923 1.417h-6.161c-1.385 0-2.355-1.362-1.896-2.663l14.787-41.875a2.01 2.01 0 0 1 1.896-1.337h9.053a2.01 2.01 0 0 1 1.895 1.334l14.844 41.876c.461 1.301-.509 2.665-1.895 2.665zm-9.87-19c1.355 0 2.322-1.308 1.918-2.595L86.783 175q-.313-1.062-.847-2.719-.502-1.687-1.036-3.406c-.222-.771-1.421-.773-1.648-.004l-.047.16A385 385 0 0 1 81.447 175l-2.493 8.035c-.4 1.286.567 2.59 1.92 2.59zm43.449-16.594q5.934 0 9.576 4.594 3.673 4.594 3.673 13.469 0 5.937-1.727 10-1.727 4.03-4.772 6.094-3.045 2.061-7.001 2.062-2.543 0-4.364-.625-1.82-.656-3.108-1.656a15 15 0 0 1-2.139-2.079.298.298 0 0 0-.524.244q.201 1.082.309 2.21.125 1.313.125 2.562V218c0 1.105-.899 2-2.009 2h-5.557a2.005 2.005 0 0 1-2.009-2v-46.312c0-1.105.9-2 2.009-2h4.277c.89 0 1.673.582 1.926 1.431l.851 2.855a.34.34 0 0 0 .329.245.35.35 0 0 0 .286-.151 13.4 13.4 0 0 1 2.189-2.443q1.35-1.188 3.234-1.875 1.915-.719 4.426-.719m-3.076 7.625q-2.513 0-3.987 1.032-1.476 1.03-2.166 3.093-.66 2.063-.723 5.219v1.031q0 3.376.628 5.719.66 2.344 2.167 3.562 1.538 1.22 4.206 1.219 2.198 0 3.611-1.219 1.412-1.219 2.103-3.562.722-2.375.722-5.781 0-5.126-1.601-7.719t-4.96-2.594m43.763-7.625q5.934 0 9.575 4.594 3.674 4.594 3.674 13.469 0 5.937-1.727 10-1.727 4.03-4.772 6.094-3.045 2.061-7.001 2.062-2.543 0-4.364-.625-1.821-.656-3.108-1.656a15 15 0 0 1-2.139-2.079.298.298 0 0 0-.524.244q.201 1.082.309 2.21.125 1.313.125 2.562V218c0 1.105-.899 2-2.009 2h-5.557a2.005 2.005 0 0 1-2.009-2v-46.312c0-1.105.9-2 2.009-2h4.277c.89 0 1.673.582 1.926 1.431l.851 2.855a.34.34 0 0 0 .329.245.35.35 0 0 0 .286-.151 13.4 13.4 0 0 1 2.189-2.443q1.35-1.188 3.234-1.875 1.915-.719 4.426-.719m-3.076 7.625q-2.512 0-3.987 1.032-1.476 1.03-2.167 3.093-.659 2.063-.722 5.219v1.031q0 3.376.628 5.719.66 2.344 2.166 3.562 1.539 1.22 4.207 1.219 2.198 0 3.61-1.219 1.413-1.219 2.104-3.562.722-2.375.722-5.781 0-5.126-1.601-7.719-1.602-2.594-4.96-2.594" fill="currentColor"/><defs><filter id="a" x="0" y="17" width="249.323" height="213.2" filterUnits="userSpaceOnUse" color-interpolation-filters="sRGB"><feFlood flood-opacity="0" result="BackgroundImageFix"/><feBlend in="SourceGraphic" in2="BackgroundImageFix" result="shape"/><feGaussianBlur stdDeviation=".5" result="effect1_foregroundBlur_77_4"/></filter></defs></svg>