<svg width="513" height="106" viewBox="0 0 513 106" fill="none" xmlns="http://www.w3.org/2000/svg">
  <path
    d="M487.127 87.0398C482.578 87.0398 478.13 86.4961 473.784 85.4088C470.785 84.6116 468.206 83.685 466.048 82.6289C464.473 81.8584 463.941 79.9492 464.679 78.3581L466.987 73.3821C467.889 71.4389 470.299 70.7425 472.247 71.6313C473.858 72.3663 475.627 73.0172 477.553 73.5841C481.016 74.5355 484.411 75.0112 487.739 75.0112C494.461 75.0112 497.823 73.3462 497.823 70.0163C497.823 68.4533 496.906 67.332 495.073 66.6524C493.239 65.9728 490.421 65.3952 486.618 64.9195C482.136 64.2399 478.435 63.4584 475.515 62.5749C472.595 61.6915 470.049 60.1284 467.876 57.8858C465.771 55.6432 464.718 52.4492 464.718 48.3038C464.718 44.8379 465.703 41.7798 467.672 39.1295C469.709 36.4111 472.629 34.3044 476.432 32.8094C480.303 31.3143 484.853 30.5668 490.081 30.5668C493.952 30.5668 497.789 31.0085 501.592 31.8919C504.118 32.4242 506.355 33.1012 508.303 33.923C509.979 34.6301 510.578 36.614 509.807 38.2624L507.487 43.2179C506.614 45.0826 504.346 45.7908 502.445 45.0013C498.584 43.3973 494.463 42.5953 490.081 42.5953C486.686 42.5953 484.14 43.071 482.442 44.0224C480.744 44.9738 479.895 46.1971 479.895 47.6921C479.895 49.3911 480.812 50.5804 482.646 51.2599C484.479 51.9395 487.399 52.5851 491.406 53.1967C495.887 53.9443 499.554 54.7598 502.406 55.6432C505.259 56.4587 507.737 57.9878 509.842 60.2304C511.947 62.473 513 65.599 513 69.6086C513 73.0065 511.981 76.0306 509.944 78.6809C507.907 81.3313 504.919 83.404 500.98 84.8991C497.11 86.3262 492.492 87.0398 487.127 87.0398Z"
    fill="white" />
  <path
    d="M434.158 74.2977C437.01 74.2977 439.522 73.8899 441.695 73.0744C442.879 72.6076 444.016 72.0081 445.105 71.2757C446.752 70.1683 449.015 70.1978 450.361 71.6574L454.211 75.8358C455.435 77.1644 455.481 79.2276 454.124 80.4207C449.107 84.8334 442.316 87.0398 433.75 87.0398C427.571 87.0398 422.104 85.8505 417.351 83.472C412.597 81.0255 408.93 77.6616 406.35 73.3802C403.769 69.0989 402.479 64.2399 402.479 58.8033C402.479 53.4346 403.735 48.6096 406.248 44.3282C408.828 39.9789 412.326 36.615 416.74 34.2365C421.221 31.79 426.247 30.5668 431.815 30.5668C437.044 30.5668 441.797 31.6881 446.075 33.9307C450.353 36.1053 453.749 39.2993 456.261 43.5127C458.391 46.9346 459.642 50.889 460.014 55.376C460.154 57.0657 458.931 58.5262 457.267 58.8483L423.886 65.3114C421.675 65.7393 420.4 68.1598 421.912 69.8282C422.789 70.7955 423.815 71.6057 424.99 72.2589C427.503 73.6181 430.559 74.2977 434.158 74.2977ZM431.815 42.5953C427.808 42.5953 424.549 43.8865 422.036 46.4689C420.395 48.1555 419.261 50.2624 418.634 52.7896C418.088 54.992 420.181 56.7598 422.407 56.3262L441.05 52.6944C443.055 52.3039 444.363 50.2492 443.292 48.5093C442.491 47.2092 441.45 46.0874 440.167 45.1437C437.859 43.4448 435.074 42.5953 431.815 42.5953Z"
    fill="white" />
  <path
    d="M370.74 30.5668C375.833 30.5668 380.45 31.756 384.593 34.1345C388.803 36.4451 392.096 39.7411 394.473 44.0224C396.85 48.2358 398.038 53.1628 398.038 58.8033C398.038 64.4438 396.85 69.4047 394.473 73.686C392.096 77.8994 388.803 81.1954 384.593 83.5739C380.45 85.8845 375.833 87.0398 370.74 87.0398C367.397 87.0398 364.395 86.5353 361.735 85.5265C358.711 84.3796 354.238 86.343 354.238 89.5795V102.461C354.238 104.415 352.655 106 350.701 106H341.885C339.931 106 338.348 104.415 338.348 102.461V34.9217C338.348 32.9669 339.931 31.3822 341.885 31.3822H351.852C352.776 31.3822 353.525 32.132 353.525 33.0568C353.525 34.6253 355.627 35.4474 356.894 34.5237C360.511 31.8857 365.126 30.5668 370.74 30.5668ZM367.989 73.9918C372.064 73.9918 375.391 72.6327 377.972 69.9144C380.62 67.1281 381.944 63.4244 381.944 58.8033C381.944 54.1821 380.62 50.5124 377.972 47.7941C375.391 45.0078 372.064 43.6147 367.989 43.6147C363.915 43.6147 360.553 45.0078 357.905 47.7941C355.325 50.5124 354.034 54.1821 354.034 58.8033C354.034 63.4244 355.325 67.1281 357.905 69.9144C360.553 72.6327 363.915 73.9918 367.989 73.9918Z"
    fill="white" />
  <path
    d="M315.491 34.9217C315.491 32.9669 317.074 31.3823 319.028 31.3823H327.844C329.798 31.3823 331.381 32.9669 331.381 34.9217V82.6848C331.381 84.6396 329.798 86.2243 327.844 86.2243H319.028C317.074 86.2243 315.491 84.6396 315.491 82.6848V34.9217ZM323.436 23.737C320.516 23.737 318.139 22.8875 316.306 21.1886C314.472 19.4896 313.556 17.3829 313.556 14.8685C313.556 12.3541 314.472 10.2474 316.306 8.54842C318.139 6.84947 320.516 6 323.436 6C326.356 6 328.733 6.8155 330.566 8.44649C332.4 10.0775 333.317 12.1162 333.317 14.5627C333.317 17.2131 332.4 19.4217 330.566 21.1886C328.733 22.8875 326.356 23.737 323.436 23.737Z"
    fill="white" />
  <path
    d="M286.038 87.0398C280.198 87.0398 274.935 85.8505 270.25 83.472C265.632 81.0255 261.999 77.6616 259.351 73.3802C256.77 69.0989 255.48 64.2399 255.48 58.8033C255.48 53.3666 256.77 48.5076 259.351 44.2263C261.999 39.9449 265.632 36.615 270.25 34.2365C274.935 31.79 280.198 30.5668 286.038 30.5668C291.81 30.5668 296.835 31.79 301.113 34.2365C304.473 36.0754 307.123 38.5439 309.063 41.642C310.042 43.2068 309.333 45.206 307.707 46.0798L301.305 49.5215C299.613 50.4314 297.541 49.783 296.296 48.3193C293.626 45.1829 290.173 43.6147 285.936 43.6147C281.794 43.6147 278.365 44.9738 275.648 47.6921C272.932 50.4105 271.574 54.1142 271.574 58.8033C271.574 63.4924 272.932 67.1961 275.648 69.9144C278.365 72.6327 281.794 73.9918 285.936 73.9918C290.2 73.9918 293.648 72.4431 296.28 69.3458C297.539 67.8636 299.639 67.2006 301.346 68.1322L307.703 71.6023C309.329 72.4898 310.022 74.5041 309.017 76.0607C307.082 79.0569 304.447 81.4934 301.113 83.37C296.835 85.8165 291.81 87.0398 286.038 87.0398Z"
    fill="white" />
  <path
    d="M226.436 74.2977C229.288 74.2977 231.8 73.8899 233.973 73.0744C235.157 72.6076 236.294 72.0081 237.383 71.2757C239.03 70.1683 241.293 70.1978 242.639 71.6574L246.489 75.8358C247.713 77.1644 247.759 79.2276 246.402 80.4207C241.385 84.8334 234.593 87.0398 226.028 87.0398C219.849 87.0398 214.382 85.8505 209.629 83.472C204.875 81.0255 201.208 77.6616 198.628 73.3802C196.047 69.0989 194.757 64.2399 194.757 58.8033C194.757 53.4346 196.013 48.6096 198.526 44.3282C201.106 39.9789 204.604 36.615 209.017 34.2365C213.499 31.79 218.524 30.5668 224.093 30.5668C229.322 30.5668 234.075 31.6881 238.353 33.9307C242.631 36.1053 246.027 39.2993 248.539 43.5127C250.669 46.9346 251.92 50.889 252.292 55.376C252.432 57.0657 251.208 58.5262 249.545 58.8483L216.163 65.3114C213.953 65.7393 212.678 68.1598 214.19 69.8283C215.067 70.7955 216.093 71.6057 217.268 72.2589C219.781 73.6181 222.837 74.2977 226.436 74.2977ZM224.093 42.5953C220.086 42.5953 216.827 43.8865 214.314 46.4689C212.673 48.1555 211.539 50.2624 210.912 52.7896C210.365 54.992 212.459 56.7598 214.685 56.3262L233.328 52.6944C235.333 52.3039 236.641 50.2492 235.57 48.5093C234.769 47.2092 233.728 46.0874 232.445 45.1437C230.137 43.4448 227.352 42.5953 224.093 42.5953Z"
    fill="white" />
  <path
    d="M177.283 86.2243C176.122 86.2243 175.036 85.6545 174.375 84.6995L162.733 67.8714C162.073 66.9164 160.986 66.3466 159.825 66.3466H150.038C148.085 66.3466 146.501 67.9313 146.501 69.8861V82.6848C146.501 84.6396 144.918 86.2243 142.965 86.2243H133.537C131.583 86.2243 130 84.6396 130 82.6848V18.408C130 16.4532 131.583 14.8685 133.537 14.8685H160.864C167.179 14.8685 172.646 15.9219 177.263 18.0286C181.949 20.1353 185.548 23.1254 188.06 26.999C190.573 30.8726 191.829 35.4598 191.829 40.7605C191.829 46.0612 190.539 50.6483 187.959 54.5219C186.179 57.2176 183.854 59.47 180.984 61.2791C179.094 62.4708 178.356 65.0016 179.634 66.8354L189.273 80.6594C190.909 83.0057 189.232 86.2243 186.373 86.2243H177.283ZM175.124 40.7605C175.124 36.751 173.834 33.6929 171.254 31.5862C168.673 29.4115 164.904 28.3242 159.947 28.3242H150.038C148.085 28.3242 146.501 29.9089 146.501 31.8636V49.6573C146.501 51.6121 148.085 53.1968 150.038 53.1968H159.947C164.904 53.1968 168.673 52.1094 171.254 49.9348C173.834 47.7601 175.124 44.702 175.124 40.7605Z"
    fill="white" />
  <path fill-rule="evenodd" clip-rule="evenodd"
    d="M49.5096 77.5478C49.4312 77.511 49.3517 77.4738 49.271 77.436L49.2703 77.4357C49.3512 77.4736 49.431 77.5109 49.5096 77.5478Z"
    fill="white" />
  <path
    d="M77.2484 40.4C81.9964 40.4 82 44.4045 82 44.4105V62.741C82 72.7236 75.7263 75.6592 71.9313 77.4349L71.9308 77.4352C71.6068 77.5868 71.3008 77.73 71.0184 77.8684C68.1463 79.2756 67.3344 81.6915 67.2875 82.7234L68.2313 95.1457C68.3806 97.1101 68.4552 98.0922 68.9715 98.7882C69.1948 99.0892 69.4753 99.348 69.7934 99.5464C70.5286 100.005 71.5084 100 73.468 99.991C83.5272 99.9434 86.712 99.569 91.1114 96.6294C93.2952 95.1702 95.1702 93.2952 96.6294 91.1114C100 86.0669 100 79.0446 100 65V35C100 20.9554 100 13.9331 96.6294 8.8886C95.1702 6.70479 93.2952 4.82978 91.1114 3.37061C86.0669 0 79.0446 0 65 0H35C20.9554 0 13.9331 0 8.8886 3.37061C6.70479 4.82978 4.82978 6.70479 3.37061 8.8886C0 13.9331 0 20.9554 0 35V65C0 79.0446 0 86.0669 3.37061 91.1114C4.82978 93.2952 6.70479 95.1702 8.8886 96.6294C13.9331 100 20.9554 100 35 100H47.7337C49.6999 100 50.6829 100 51.4144 99.5408C51.7318 99.3415 52.0091 99.0845 52.2319 98.783C52.7452 98.0884 52.8197 97.1082 52.9686 95.1477L53.9125 82.7234C53.8656 81.6915 53.0537 79.2756 50.1816 77.8684C49.9701 77.7647 49.7453 77.6583 49.5096 77.5478C49.431 77.5109 49.3512 77.4736 49.2703 77.4357L49.2694 77.4353L49.2687 77.4349C45.4737 75.6592 39.2001 72.7236 39.2 62.741V44.4105C39.2 44.4045 39.2036 40.4 43.9516 40.4C48.6996 40.4 48.7031 44.4045 48.7031 44.4105V57.8858C48.7031 57.8855 48.7031 57.886 48.7031 57.8858C48.7031 57.8889 48.7052 60.841 52.2582 60.841C55.8115 60.841 55.8133 57.8887 55.8133 57.8859C55.8133 57.8862 55.8133 57.8857 55.8133 57.8859V44.4105C55.8133 44.4045 55.8168 40.4 60.6 40.4C65.3832 40.4 65.3867 44.4045 65.3867 44.4105V57.8858C65.3867 57.8856 65.3867 57.8859 65.3867 57.8858C65.3867 57.8886 65.3885 60.841 68.9418 60.841C72.4948 60.841 72.4969 57.8891 72.4969 57.8859C72.4969 57.8862 72.4969 57.8857 72.4969 57.8859V44.4105C72.4969 44.4045 72.5004 40.4 77.2484 40.4Z"
    fill="white" />
</svg>