<svg width="50" height="50" viewBox="0 0 50 50" fill="none" xmlns="http://www.w3.org/2000/svg">
  <path fill-rule="evenodd" clip-rule="evenodd"
    d="M24.7548 38.7739C24.7156 38.7555 24.6758 38.7369 24.6355 38.718L24.6352 38.7179C24.6756 38.7368 24.7155 38.7554 24.7548 38.7739Z"
    fill="#EA580C" />
  <path
    d="M38.6242 20.2C40.9982 20.2 41 22.2022 41 22.2053V31.3705C41 36.3618 37.8631 37.8296 35.9657 38.7175L35.9654 38.7176C35.8034 38.7934 35.6504 38.865 35.5092 38.9342C34.0731 39.6378 33.6672 40.8457 33.6438 41.3617L34.1157 47.5729C34.1903 48.555 34.2276 49.0461 34.4857 49.3941C34.5974 49.5446 34.7377 49.674 34.8967 49.7732C35.175 49.9468 35.5235 49.9876 36.1015 49.9952C36.287 49.9976 36.4961 49.9966 36.734 49.9955C41.7636 49.9717 43.356 49.7845 45.5557 48.3147C46.6476 47.5851 47.5851 46.6476 48.3147 45.5557C50 43.0335 50 39.5223 50 32.5V17.5C50 10.4777 50 6.96653 48.3147 4.4443C47.5851 3.3524 46.6476 2.41489 45.5557 1.6853C43.0335 0 39.5223 0 32.5 0H17.5C10.4777 0 6.96653 0 4.4443 1.6853C3.3524 2.41489 2.41489 3.3524 1.6853 4.4443C0 6.96653 0 10.4777 0 17.5V32.5C0 39.5223 0 43.0335 1.6853 45.5557C2.41489 46.6476 3.3524 47.5851 4.4443 48.3147C6.96653 50 10.4777 50 17.5 50H23.8669C24.0922 50 24.2918 50 24.4699 49.9972C25.0687 49.9879 25.4253 49.9474 25.7072 49.7704C25.8659 49.6707 26.0046 49.5422 26.116 49.3915C26.3726 49.0442 26.4098 48.5541 26.4843 47.5738L26.9563 41.3617C26.9328 40.8457 26.5269 39.6378 25.0908 38.9342C24.985 38.8823 24.8726 38.8292 24.7548 38.7739C24.7155 38.7554 24.6756 38.7368 24.6352 38.7179L24.6347 38.7176L24.6343 38.7175C22.7369 37.8296 19.6 36.3618 19.6 31.3705V22.2053C19.6 22.2022 19.6018 20.2 21.9758 20.2C24.3498 20.2 24.3516 22.2022 24.3516 22.2053V28.9429C24.3516 28.9445 24.3526 30.4205 26.1291 30.4205C27.9057 30.4205 27.9066 28.9444 27.9066 28.943V22.2053C27.9066 22.2022 27.9084 20.2 30.3 20.2C32.6916 20.2 32.6934 22.2022 32.6934 22.2053V28.9429C32.6934 28.9443 32.6943 30.4205 34.4709 30.4205C36.2474 30.4205 36.2484 28.9446 36.2484 28.943V22.2053C36.2484 22.2022 36.2502 20.2 38.6242 20.2Z"
    fill="#EA580C" />
  <path
    d="M41 22.2053C41 22.2022 40.9982 20.2 38.6242 20.2C36.2502 20.2 36.2484 22.2022 36.2484 22.2053V28.943C36.2484 28.9446 36.2474 30.4205 34.4709 30.4205C32.6943 30.4205 32.6934 28.9443 32.6934 28.9429V22.2053C32.6934 22.2022 32.6916 20.2 30.3 20.2C27.9084 20.2 27.9066 22.2022 27.9066 22.2053V28.943C27.9066 28.9444 27.9057 30.4205 26.1291 30.4205C24.3526 30.4205 24.3516 28.9445 24.3516 28.9429V22.2053C24.3516 22.2022 24.3498 20.2 21.9758 20.2C19.6018 20.2 19.6 22.2022 19.6 22.2053V31.3705C19.6 36.3618 22.7369 37.8296 24.6343 38.7175L24.6347 38.7176L24.6352 38.7179L24.6355 38.718C24.6758 38.7369 24.7156 38.7555 24.7548 38.7739C24.8726 38.8292 24.985 38.8823 25.0908 38.9342C26.5269 39.6378 26.9328 40.8457 26.9563 41.3617L26.4843 47.5738C26.4098 48.5541 26.3726 49.0442 26.116 49.3915C26.0046 49.5422 25.8659 49.6707 25.7072 49.7704C25.4253 49.9474 25.0687 49.9879 24.4699 49.9972C26.453 49.9922 32.4927 49.9935 36.1015 49.9952C35.5235 49.9876 35.175 49.9468 34.8967 49.7732C34.7377 49.674 34.5974 49.5446 34.4857 49.3941C34.2276 49.0461 34.1903 48.555 34.1157 47.5729L33.6438 41.3617C33.6672 40.8457 34.0731 39.6378 35.5092 38.9342C35.6504 38.865 35.8034 38.7934 35.9654 38.7176L35.9657 38.7175C37.8631 37.8296 41 36.3618 41 31.3705V22.2053Z"
    fill="white" />
</svg>