<svg width="250" height="250" viewBox="0 0 250 250" fill="none" xmlns="http://www.w3.org/2000/svg">
  <path fill-rule="evenodd" clip-rule="evenodd"
    d="M123.774 193.869C123.578 193.777 123.379 193.684 123.178 193.59L123.176 193.589C123.378 193.684 123.577 193.777 123.774 193.869Z"
    fill="#EA580C" />
  <path
    d="M193.121 101C204.991 101 205 111.011 205 111.026V156.853C205 181.809 189.316 189.148 179.828 193.587L179.827 193.588C179.017 193.967 178.252 194.325 177.546 194.671C170.366 198.189 168.336 204.229 168.219 206.809L170.578 237.864C170.951 242.775 171.138 245.231 172.429 246.97C172.987 247.723 173.688 248.37 174.483 248.866C175.875 249.734 177.617 249.938 180.508 249.976C181.435 249.988 182.48 249.983 183.67 249.978C208.818 249.858 216.78 248.923 227.779 241.573C233.238 237.926 237.926 233.238 241.573 227.779C250 215.167 250 197.612 250 162.5V87.5C250 52.3884 250 34.8327 241.573 22.2215C237.926 16.762 233.238 12.0744 227.779 8.42652C215.167 0 197.612 0 162.5 0H87.5C52.3884 0 34.8327 0 22.2215 8.42652C16.762 12.0744 12.0744 16.762 8.42652 22.2215C0 34.8327 0 52.3884 0 87.5V162.5C0 197.612 0 215.167 8.42652 227.779C12.0744 233.238 16.762 237.926 22.2215 241.573C34.8327 250 52.3884 250 87.5 250H119.334C120.461 250 121.459 250 122.349 249.986C125.343 249.94 127.127 249.737 128.536 248.852C129.33 248.354 130.023 247.711 130.58 246.958C131.863 245.221 132.049 242.77 132.422 237.869L134.781 206.809C134.664 204.229 132.634 198.189 125.454 194.671C124.925 194.412 124.363 194.146 123.774 193.869C123.577 193.777 123.378 193.684 123.176 193.589L123.174 193.588L123.172 193.587C113.684 189.148 98.0001 181.809 98 156.853V111.026C98 111.011 98.009 101 109.879 101C121.749 101 121.758 111.011 121.758 111.026V144.714C121.758 144.722 121.763 152.103 130.646 152.103C139.529 152.103 139.533 144.722 139.533 144.715V111.026C139.533 111.011 139.542 101 151.5 101C163.458 101 163.467 111.011 163.467 111.026V144.715C163.467 144.721 163.471 152.103 172.354 152.103C181.237 152.103 181.242 144.723 181.242 144.715V111.026C181.242 111.011 181.251 101 193.121 101Z"
    fill="#EA580C" />
  <path
    d="M205 111.026C205 111.011 204.991 101 193.121 101C181.251 101 181.242 111.011 181.242 111.026V144.715C181.242 144.723 181.237 152.103 172.354 152.103C163.471 152.103 163.467 144.721 163.467 144.715V111.026C163.467 111.011 163.458 101 151.5 101C139.542 101 139.533 111.011 139.533 111.026V144.715C139.533 144.722 139.529 152.103 130.646 152.103C121.763 152.103 121.758 144.722 121.758 144.714V111.026C121.758 111.011 121.749 101 109.879 101C98.009 101 98 111.011 98 111.026V156.853C98.0001 181.809 113.684 189.148 123.172 193.587L123.174 193.588L123.176 193.589L123.178 193.59C123.379 193.684 123.578 193.777 123.774 193.869C124.363 194.146 124.925 194.412 125.454 194.671C132.634 198.189 134.664 204.229 134.781 206.809L132.422 237.869C132.049 242.77 131.863 245.221 130.58 246.958C130.023 247.711 129.33 248.354 128.536 248.852C127.127 249.737 125.343 249.94 122.349 249.986C132.265 249.961 162.464 249.968 180.508 249.976C177.617 249.938 175.875 249.734 174.483 248.866C173.688 248.37 172.987 247.723 172.429 246.97C171.138 245.231 170.951 242.775 170.578 237.864L168.219 206.809C168.336 204.229 170.366 198.189 177.546 194.671C178.252 194.325 179.017 193.967 179.827 193.588L179.828 193.587C189.316 189.148 205 181.809 205 156.853V111.026Z"
    fill="white" />
</svg>
  